<svg xmlns="http://www.w3.org/2000/svg" xmlns:xlink="http://www.w3.org/1999/xlink" width="40" zoomAndPan="magnify" viewBox="0 0 30 30.000001" height="40" preserveAspectRatio="xMidYMid meet" version="1.0"><defs><clipPath id="c53cd0ad78"><path d="M 7.453125 20.539062 L 8.886719 20.539062 L 8.886719 21.972656 L 7.453125 21.972656 Z M 7.453125 20.539062 " clip-rule="nonzero"/></clipPath><clipPath id="8c491785b6"><path d="M 8.167969 20.539062 C 7.773438 20.539062 7.453125 20.859375 7.453125 21.257812 C 7.453125 21.652344 7.773438 21.972656 8.167969 21.972656 C 8.5625 21.972656 8.886719 21.652344 8.886719 21.257812 C 8.886719 20.859375 8.5625 20.539062 8.167969 20.539062 Z M 8.167969 20.539062 " clip-rule="nonzero"/></clipPath><clipPath id="1a90687825"><path d="M 0.453125 0.539062 L 1.886719 0.539062 L 1.886719 1.972656 L 0.453125 1.972656 Z M 0.453125 0.539062 " clip-rule="nonzero"/></clipPath><clipPath id="088b7cf3ba"><path d="M 1.167969 0.539062 C 0.773438 0.539062 0.453125 0.859375 0.453125 1.257812 C 0.453125 1.652344 0.773438 1.972656 1.167969 1.972656 C 1.5625 1.972656 1.886719 1.652344 1.886719 1.257812 C 1.886719 0.859375 1.5625 0.539062 1.167969 0.539062 Z M 1.167969 0.539062 " clip-rule="nonzero"/></clipPath><clipPath id="308abeb655"><rect x="0" width="2" y="0" height="2"/></clipPath><clipPath id="6004c9f7cb"><path d="M 0.484375 2.160156 L 29.515625 2.160156 L 29.515625 10 L 0.484375 10 Z M 0.484375 2.160156 " clip-rule="nonzero"/></clipPath><clipPath id="ffb1b7f22f"><path d="M 0.484375 23 L 29.515625 23 L 29.515625 26.835938 L 0.484375 26.835938 Z M 0.484375 23 " clip-rule="nonzero"/></clipPath></defs><g clip-path="url(#c53cd0ad78)"><g clip-path="url(#8c491785b6)"><g transform="matrix(1, 0, 0, 1, 7, 20)"><g clip-path="url(#308abeb655)"><g clip-path="url(#1a90687825)"><g clip-path="url(#088b7cf3ba)"><path fill="#2584d1" d="M 0.453125 0.539062 L 1.886719 0.539062 L 1.886719 1.972656 L 0.453125 1.972656 Z M 0.453125 0.539062 " fill-opacity="1" fill-rule="nonzero"/></g></g></g></g></g></g><path fill="#ffffff" d="M 27.335938 4.5 C 27.332031 4.351562 27.257812 4.277344 27.109375 4.277344 L 24.203125 4.277344 C 24.054688 4.277344 23.980469 4.351562 23.980469 4.5 L 23.980469 5.546875 L 27.335938 5.546875 Z M 27.335938 4.5 " fill-opacity="1" fill-rule="nonzero"/><path fill="#ffffff" d="M 5.992188 4.5 C 5.992188 4.351562 5.917969 4.277344 5.769531 4.277344 L 2.859375 4.277344 C 2.714844 4.277344 2.636719 4.351562 2.636719 4.5 L 2.636719 5.546875 L 5.992188 5.546875 Z M 5.992188 4.5 " fill-opacity="1" fill-rule="nonzero"/><path fill="#ffffff" d="M 1.398438 9.566406 L 1.398438 23.171875 L 28.570312 23.171875 L 28.570312 9.566406 Z M 18.398438 14.648438 L 12.1875 21.183594 C 12.140625 21.230469 12.085938 21.25 12.023438 21.253906 C 11.976562 21.253906 11.933594 21.238281 11.898438 21.214844 C 11.796875 21.140625 11.769531 21.046875 11.820312 20.933594 L 13.785156 16.769531 L 11.734375 16.769531 C 11.652344 16.773438 11.589844 16.738281 11.546875 16.671875 C 11.503906 16.601562 11.496094 16.53125 11.53125 16.457031 L 13.664062 11.617188 C 13.703125 11.527344 13.769531 11.484375 13.867188 11.484375 L 16.433594 11.484375 C 16.511719 11.484375 16.570312 11.515625 16.613281 11.582031 C 16.660156 11.644531 16.667969 11.714844 16.640625 11.785156 L 15.835938 13.9375 L 18.269531 14.273438 C 18.359375 14.285156 18.417969 14.335938 18.449219 14.421875 C 18.476562 14.507812 18.460938 14.582031 18.398438 14.648438 Z M 18.398438 14.648438 " fill-opacity="1" fill-rule="nonzero"/><g clip-path="url(#6004c9f7cb)"><path fill="#ffffff" d="M 28.789062 5.992188 L 21.03125 5.992188 L 21.03125 3.644531 C 21.03125 3.449219 20.996094 3.261719 20.917969 3.082031 C 20.84375 2.902344 20.738281 2.742188 20.601562 2.605469 C 20.460938 2.464844 20.300781 2.359375 20.121094 2.285156 C 19.941406 2.210938 19.753906 2.171875 19.558594 2.171875 L 10.410156 2.171875 C 10.214844 2.171875 10.027344 2.210938 9.847656 2.285156 C 9.667969 2.359375 9.507812 2.464844 9.371094 2.605469 C 9.230469 2.742188 9.125 2.902344 9.050781 3.082031 C 8.976562 3.261719 8.9375 3.449219 8.9375 3.644531 L 8.9375 5.992188 L 1.179688 5.992188 C 0.984375 5.992188 0.820312 6.0625 0.683594 6.199219 C 0.546875 6.335938 0.476562 6.503906 0.476562 6.699219 L 0.476562 8.417969 C 0.476562 8.609375 0.546875 8.777344 0.683594 8.914062 C 0.820312 9.050781 0.984375 9.117188 1.179688 9.117188 L 28.789062 9.117188 C 28.984375 9.117188 29.148438 9.050781 29.285156 8.914062 C 29.421875 8.777344 29.492188 8.609375 29.492188 8.417969 L 29.492188 6.699219 C 29.492188 6.503906 29.425781 6.335938 29.289062 6.199219 C 29.148438 6.0625 28.984375 5.992188 28.789062 5.992188 Z M 9.382812 3.644531 C 9.382812 3.507812 9.410156 3.378906 9.460938 3.253906 C 9.515625 3.125 9.589844 3.015625 9.683594 2.917969 C 9.78125 2.824219 9.894531 2.75 10.019531 2.695312 C 10.144531 2.644531 10.273438 2.617188 10.410156 2.617188 L 19.558594 2.617188 C 19.695312 2.617188 19.824219 2.644531 19.949219 2.695312 C 20.078125 2.75 20.1875 2.824219 20.285156 2.917969 C 20.378906 3.015625 20.453125 3.125 20.507812 3.253906 C 20.558594 3.378906 20.585938 3.507812 20.585938 3.644531 L 20.585938 5.992188 L 9.382812 5.992188 Z M 9.382812 3.644531 " fill-opacity="1" fill-rule="nonzero"/></g><g clip-path="url(#ffb1b7f22f)"><path fill="#ffffff" d="M 1.179688 23.617188 L 28.789062 23.617188 C 28.984375 23.617188 29.148438 23.6875 29.285156 23.824219 C 29.425781 23.960938 29.492188 24.128906 29.492188 24.320312 L 29.492188 26.039062 C 29.492188 26.234375 29.425781 26.398438 29.285156 26.535156 C 29.148438 26.675781 28.984375 26.742188 28.789062 26.742188 L 1.179688 26.742188 C 0.984375 26.742188 0.820312 26.675781 0.683594 26.535156 C 0.546875 26.398438 0.476562 26.234375 0.476562 26.039062 L 0.476562 24.320312 C 0.476562 24.128906 0.546875 23.960938 0.683594 23.824219 C 0.820312 23.6875 0.984375 23.617188 1.179688 23.617188 Z M 1.179688 23.617188 " fill-opacity="1" fill-rule="nonzero"/></g></svg>