<svg xmlns="http://www.w3.org/2000/svg" xmlns:xlink="http://www.w3.org/1999/xlink" width="40" zoomAndPan="magnify" viewBox="0 0 30 30.000001" height="40" preserveAspectRatio="xMidYMid meet" version="1.0"><defs><clipPath id="a766d2b1e5"><path d="M 3.386719 7.039062 L 4.820312 7.039062 L 4.820312 8.472656 L 3.386719 8.472656 Z M 3.386719 7.039062 " clip-rule="nonzero"/></clipPath><clipPath id="f55726becf"><path d="M 4.105469 7.039062 C 3.707031 7.039062 3.386719 7.359375 3.386719 7.757812 C 3.386719 8.152344 3.707031 8.472656 4.105469 8.472656 C 4.5 8.472656 4.820312 8.152344 4.820312 7.757812 C 4.820312 7.359375 4.5 7.039062 4.105469 7.039062 Z M 4.105469 7.039062 " clip-rule="nonzero"/></clipPath><clipPath id="3d3f67b2d2"><path d="M 0.386719 0.0390625 L 1.820312 0.0390625 L 1.820312 1.472656 L 0.386719 1.472656 Z M 0.386719 0.0390625 " clip-rule="nonzero"/></clipPath><clipPath id="d3ba1d4729"><path d="M 1.105469 0.0390625 C 0.707031 0.0390625 0.386719 0.359375 0.386719 0.757812 C 0.386719 1.152344 0.707031 1.472656 1.105469 1.472656 C 1.5 1.472656 1.820312 1.152344 1.820312 0.757812 C 1.820312 0.359375 1.5 0.0390625 1.105469 0.0390625 Z M 1.105469 0.0390625 " clip-rule="nonzero"/></clipPath><clipPath id="7093a1fadb"><rect x="0" width="2" y="0" height="2"/></clipPath><clipPath id="2a9d8d0523"><path d="M 0.484375 0 L 29.515625 0 L 29.515625 29.03125 L 0.484375 29.03125 Z M 0.484375 0 " clip-rule="nonzero"/></clipPath></defs><g clip-path="url(#a766d2b1e5)"><g clip-path="url(#f55726becf)"><g transform="matrix(1, 0, 0, 1, 3, 7)"><g clip-path="url(#7093a1fadb)"><g clip-path="url(#3d3f67b2d2)"><g clip-path="url(#d3ba1d4729)"><path fill="#2584d1" d="M 0.386719 0.0390625 L 1.820312 0.0390625 L 1.820312 1.472656 L 0.386719 1.472656 Z M 0.386719 0.0390625 " fill-opacity="1" fill-rule="nonzero"/></g></g></g></g></g></g><g clip-path="url(#2a9d8d0523)"><path fill="#ffffff" d="M 18.785156 7.140625 L 18.355469 10.128906 C 17.210938 9.199219 15.761719 8.628906 14.179688 8.585938 L 9.765625 2.695312 C 11.09375 2.257812 12.515625 2.019531 13.992188 2.019531 C 14.289062 2.019531 14.582031 2.03125 14.875 2.046875 C 14.875 2.046875 14.871094 4.828125 14.875 5.429688 C 14.875 5.503906 14.882812 5.582031 14.898438 5.65625 C 14.914062 5.730469 14.933594 5.800781 14.964844 5.871094 C 14.992188 5.9375 15.027344 6.003906 15.070312 6.0625 C 15.109375 6.125 15.15625 6.179688 15.207031 6.230469 C 15.257812 6.28125 15.3125 6.328125 15.375 6.371094 C 15.433594 6.410156 15.5 6.445312 15.566406 6.472656 C 15.636719 6.503906 15.707031 6.527344 15.78125 6.542969 C 15.855469 6.554688 16.011719 6.5625 16.011719 6.5625 C 16.996094 6.5625 17.933594 6.769531 18.785156 7.140625 Z M 27.46875 14.644531 C 27.488281 14.933594 27.496094 15.230469 27.496094 15.527344 C 27.496094 17.433594 27.101562 19.246094 26.386719 20.894531 L 19.386719 19.894531 C 20.316406 18.746094 20.886719 17.296875 20.929688 15.71875 L 23.113281 14.082031 C 23.113281 14.082031 23.132812 14.125 23.148438 14.140625 C 23.175781 14.179688 23.234375 14.257812 23.285156 14.308594 C 23.335938 14.359375 23.394531 14.40625 23.453125 14.449219 C 23.511719 14.488281 23.578125 14.523438 23.644531 14.554688 C 23.714844 14.582031 23.789062 14.605469 23.859375 14.621094 C 23.933594 14.632812 24.011719 14.640625 24.089844 14.644531 C 24.691406 14.648438 27.46875 14.644531 27.46875 14.644531 Z M 22.949219 13.257812 L 20.894531 14.796875 C 20.730469 13.238281 20.054688 11.835938 19.03125 10.757812 L 19.496094 7.503906 C 21.496094 8.667969 22.863281 10.800781 22.949219 13.257812 Z M 1.160156 19.753906 C 0.722656 18.421875 0.484375 17.003906 0.484375 15.527344 C 0.484375 13.621094 0.878906 11.804688 1.59375 10.160156 L 8.59375 11.160156 C 7.664062 12.308594 7.09375 13.753906 7.050781 15.335938 Z M 1.929688 9.441406 C 3.414062 6.507812 5.941406 4.1875 9.019531 2.964844 L 13.261719 8.621094 C 11.703125 8.785156 10.296875 9.464844 9.21875 10.484375 Z M 26.050781 21.609375 C 24.566406 24.546875 22.039062 26.867188 18.960938 28.085938 L 14.71875 22.429688 C 16.277344 22.269531 17.683594 21.589844 18.761719 20.570312 Z M 18.21875 28.355469 C 16.886719 28.796875 15.464844 29.03125 13.992188 29.03125 C 12.082031 29.03125 10.269531 28.636719 8.625 27.921875 L 9.625 20.921875 C 10.769531 21.851562 12.21875 22.421875 13.800781 22.464844 Z M 7.90625 27.585938 C 4.972656 26.101562 2.652344 23.578125 1.429688 20.496094 L 7.085938 16.253906 C 7.25 17.8125 7.925781 19.21875 8.949219 20.296875 Z M 13.992188 9.339844 C 17.40625 9.339844 20.175781 12.113281 20.175781 15.527344 C 20.175781 18.941406 17.40625 21.710938 13.992188 21.710938 C 10.574219 21.710938 7.804688 18.941406 7.804688 15.527344 C 7.804688 12.113281 10.578125 9.339844 13.992188 9.339844 Z M 18.789062 15.527344 C 18.789062 15.109375 18.449219 14.769531 18.03125 14.769531 C 17.613281 14.769531 17.273438 15.109375 17.273438 15.527344 C 17.273438 15.945312 17.613281 16.285156 18.03125 16.285156 C 18.449219 16.285156 18.789062 15.945312 18.789062 15.527344 Z M 13.992188 10.730469 C 13.574219 10.730469 13.234375 11.070312 13.234375 11.488281 C 13.234375 11.90625 13.574219 12.246094 13.992188 12.246094 C 14.410156 12.246094 14.746094 11.90625 14.746094 11.488281 C 14.746094 11.070312 14.410156 10.730469 13.992188 10.730469 Z M 13.992188 18.808594 C 13.574219 18.808594 13.234375 19.148438 13.234375 19.566406 C 13.234375 19.984375 13.574219 20.324219 13.992188 20.324219 C 14.410156 20.324219 14.746094 19.984375 14.746094 19.566406 C 14.746094 19.148438 14.410156 18.808594 13.992188 18.808594 Z M 13.992188 13.632812 C 12.945312 13.632812 12.097656 14.480469 12.097656 15.527344 C 12.097656 16.570312 12.945312 17.421875 13.992188 17.421875 C 15.035156 17.421875 15.882812 16.570312 15.882812 15.527344 C 15.882812 14.480469 15.035156 13.632812 13.992188 13.632812 Z M 13.992188 14.390625 C 14.617188 14.390625 15.125 14.898438 15.125 15.527344 C 15.125 16.152344 14.617188 16.664062 13.992188 16.664062 C 13.363281 16.664062 12.855469 16.152344 12.855469 15.527344 C 12.855469 14.898438 13.363281 14.390625 13.992188 14.390625 Z M 10.707031 15.527344 C 10.707031 15.109375 10.371094 14.769531 9.953125 14.769531 C 9.535156 14.769531 9.195312 15.109375 9.195312 15.527344 C 9.195312 15.945312 9.535156 16.285156 9.953125 16.285156 C 10.371094 16.285156 10.707031 15.945312 10.707031 15.527344 Z M 23.710938 13.507812 C 23.710938 9.257812 20.261719 5.804688 16.011719 5.804688 C 15.800781 5.804688 15.632812 5.636719 15.632812 5.429688 L 15.632812 0.378906 C 15.632812 0.171875 15.800781 0 16.011719 0 C 23.464844 0 29.515625 6.050781 29.515625 13.507812 C 29.515625 13.714844 29.347656 13.886719 29.136719 13.886719 L 24.089844 13.886719 C 23.878906 13.886719 23.710938 13.714844 23.710938 13.507812 Z M 26.109375 10.226562 C 25.691406 10.226562 25.351562 10.5625 25.351562 10.980469 C 25.351562 11.398438 25.691406 11.738281 26.109375 11.738281 C 26.527344 11.738281 26.867188 11.398438 26.867188 10.980469 C 26.867188 10.5625 26.527344 10.226562 26.109375 10.226562 Z M 18.535156 2.652344 C 18.117188 2.652344 17.777344 2.992188 17.777344 3.410156 C 17.777344 3.828125 18.117188 4.164062 18.535156 4.164062 C 18.953125 4.164062 19.292969 3.828125 19.292969 3.410156 C 19.292969 2.992188 18.953125 2.652344 18.535156 2.652344 Z M 18.535156 2.652344 " fill-opacity="1" fill-rule="evenodd"/></g></svg>