<svg xmlns="http://www.w3.org/2000/svg" xmlns:xlink="http://www.w3.org/1999/xlink" width="40" zoomAndPan="magnify" viewBox="0 0 30 30.000001" height="40" preserveAspectRatio="xMidYMid meet" version="1.0"><defs><clipPath id="8c4bdac6b7"><path d="M 18.066406 20.394531 L 19.5 20.394531 L 19.5 21.828125 L 18.066406 21.828125 Z M 18.066406 20.394531 " clip-rule="nonzero"/></clipPath><clipPath id="f495e0eaff"><path d="M 18.785156 20.394531 C 18.386719 20.394531 18.066406 20.714844 18.066406 21.113281 C 18.066406 21.507812 18.386719 21.828125 18.785156 21.828125 C 19.179688 21.828125 19.5 21.507812 19.5 21.113281 C 19.5 20.714844 19.179688 20.394531 18.785156 20.394531 Z M 18.785156 20.394531 " clip-rule="nonzero"/></clipPath><clipPath id="d6b8ef6b40"><path d="M 0.0664062 0.394531 L 1.5 0.394531 L 1.5 1.828125 L 0.0664062 1.828125 Z M 0.0664062 0.394531 " clip-rule="nonzero"/></clipPath><clipPath id="f1901c3b6e"><path d="M 0.785156 0.394531 C 0.386719 0.394531 0.0664062 0.714844 0.0664062 1.113281 C 0.0664062 1.507812 0.386719 1.828125 0.785156 1.828125 C 1.179688 1.828125 1.5 1.507812 1.5 1.113281 C 1.5 0.714844 1.179688 0.394531 0.785156 0.394531 Z M 0.785156 0.394531 " clip-rule="nonzero"/></clipPath><clipPath id="5f4a521f92"><rect x="0" width="2" y="0" height="2"/></clipPath><clipPath id="3ac31d1f83"><path d="M 0.484375 14 L 9 14 L 9 24 L 0.484375 24 Z M 0.484375 14 " clip-rule="nonzero"/></clipPath><clipPath id="e07d85573e"><path d="M 21 4 L 29.515625 4 L 29.515625 15 L 21 15 Z M 21 4 " clip-rule="nonzero"/></clipPath><clipPath id="b0afecb60c"><path d="M 21 14 L 29.515625 14 L 29.515625 25 L 21 25 Z M 21 14 " clip-rule="nonzero"/></clipPath><clipPath id="063be2358c"><path d="M 0.484375 4 L 9 4 L 9 15 L 0.484375 15 Z M 0.484375 4 " clip-rule="nonzero"/></clipPath></defs><g clip-path="url(#8c4bdac6b7)"><g clip-path="url(#f495e0eaff)"><g transform="matrix(1, 0, 0, 1, 18, 20)"><g clip-path="url(#5f4a521f92)"><g clip-path="url(#d6b8ef6b40)"><g clip-path="url(#f1901c3b6e)"><path fill="#2584d1" d="M 0.0664062 0.394531 L 1.5 0.394531 L 1.5 1.828125 L 0.0664062 1.828125 Z M 0.0664062 0.394531 " fill-opacity="1" fill-rule="nonzero"/></g></g></g></g></g></g><path fill="#ffffff" d="M 12.742188 20.335938 L 12.742188 21.410156 C 12.742188 21.503906 12.789062 21.546875 12.878906 21.550781 L 13.125 21.550781 L 13.125 20.195312 L 12.878906 20.195312 C 12.789062 20.195312 12.742188 20.242188 12.742188 20.335938 Z M 12.742188 20.335938 " fill-opacity="1" fill-rule="nonzero"/><path fill="#ffffff" d="M 13.746094 20.195312 L 14.207031 20.195312 L 14.207031 21.550781 L 13.746094 21.550781 Z M 13.746094 20.195312 " fill-opacity="1" fill-rule="nonzero"/><path fill="#ffffff" d="M 20.96875 16.742188 L 22.042969 16.742188 C 22.136719 16.742188 22.183594 16.695312 22.183594 16.601562 L 22.183594 16.355469 L 20.828125 16.355469 L 20.828125 16.601562 C 20.832031 16.695312 20.878906 16.742188 20.96875 16.742188 Z M 20.96875 16.742188 " fill-opacity="1" fill-rule="nonzero"/><path fill="#ffffff" d="M 20.828125 15.273438 L 22.183594 15.273438 L 22.183594 15.738281 L 20.828125 15.738281 Z M 20.828125 15.273438 " fill-opacity="1" fill-rule="nonzero"/><path fill="#ffffff" d="M 14.828125 20.195312 L 15.289062 20.195312 L 15.289062 21.550781 L 14.828125 21.550781 Z M 14.828125 20.195312 " fill-opacity="1" fill-rule="nonzero"/><path fill="#ffffff" d="M 17.375 8.515625 L 17.375 7.4375 C 17.375 7.347656 17.328125 7.300781 17.238281 7.300781 L 16.992188 7.300781 L 16.992188 8.652344 L 17.238281 8.652344 C 17.328125 8.652344 17.375 8.605469 17.375 8.515625 Z M 17.375 8.515625 " fill-opacity="1" fill-rule="nonzero"/><path fill="#ffffff" d="M 10.113281 14.425781 C 10.113281 17.109375 12.304688 19.289062 15.003906 19.289062 C 17.699219 19.289062 19.894531 17.109375 19.894531 14.425781 C 19.894531 11.742188 17.699219 9.5625 15.003906 9.5625 C 12.304688 9.5625 10.113281 11.742188 10.113281 14.425781 Z M 15.753906 10.738281 C 15.960938 10.640625 16.167969 10.632812 16.378906 10.722656 L 16.714844 10.863281 C 16.90625 10.945312 17.039062 11.078125 17.117188 11.273438 C 17.121094 11.277344 17.121094 11.285156 17.125 11.289062 C 17.339844 11.285156 17.523438 11.355469 17.675781 11.507812 L 17.933594 11.765625 C 18.082031 11.910156 18.15625 12.089844 18.152344 12.296875 C 18.152344 12.3125 18.152344 12.332031 18.152344 12.347656 C 18.367188 12.421875 18.519531 12.5625 18.605469 12.773438 L 18.742188 13.113281 C 18.820312 13.304688 18.820312 13.496094 18.738281 13.6875 C 18.738281 13.691406 18.734375 13.695312 18.730469 13.703125 C 18.886719 13.847656 18.964844 14.03125 18.964844 14.242188 L 18.964844 14.605469 C 18.964844 14.835938 18.878906 15.023438 18.707031 15.171875 C 18.714844 15.1875 18.722656 15.203125 18.726562 15.222656 C 18.804688 15.414062 18.804688 15.605469 18.722656 15.796875 L 18.582031 16.128906 C 18.496094 16.328125 18.355469 16.464844 18.152344 16.539062 C 18.152344 16.542969 18.152344 16.550781 18.152344 16.554688 C 18.152344 16.761719 18.082031 16.941406 17.933594 17.085938 L 17.675781 17.34375 C 17.511719 17.503906 17.316406 17.578125 17.089844 17.558594 C 17.085938 17.574219 17.078125 17.589844 17.070312 17.609375 C 16.992188 17.800781 16.851562 17.933594 16.660156 18.011719 L 16.320312 18.148438 C 16.121094 18.230469 15.925781 18.226562 15.730469 18.136719 C 15.582031 18.292969 15.398438 18.367188 15.183594 18.367188 L 14.820312 18.367188 C 14.589844 18.367188 14.402344 18.28125 14.25 18.109375 C 14.046875 18.210938 13.839844 18.21875 13.628906 18.128906 L 13.292969 17.988281 C 13.101562 17.90625 12.964844 17.769531 12.886719 17.578125 C 12.886719 17.574219 12.882812 17.566406 12.878906 17.5625 C 12.664062 17.566406 12.480469 17.496094 12.332031 17.34375 L 12.070312 17.085938 C 11.925781 16.941406 11.851562 16.761719 11.851562 16.554688 C 11.851562 16.539062 11.851562 16.519531 11.851562 16.503906 C 11.636719 16.429688 11.484375 16.289062 11.398438 16.074219 L 11.261719 15.738281 C 11.183594 15.546875 11.183594 15.355469 11.265625 15.164062 C 11.269531 15.160156 11.269531 15.15625 11.273438 15.148438 C 11.117188 15 11.039062 14.820312 11.039062 14.605469 L 11.039062 14.242188 C 11.039062 14.015625 11.125 13.828125 11.300781 13.675781 C 11.292969 13.660156 11.285156 13.644531 11.277344 13.628906 C 11.199219 13.4375 11.199219 13.246094 11.28125 13.054688 L 11.425781 12.722656 C 11.507812 12.523438 11.652344 12.386719 11.851562 12.3125 C 11.851562 12.304688 11.851562 12.300781 11.851562 12.292969 C 11.851562 12.085938 11.925781 11.910156 12.070312 11.765625 L 12.332031 11.507812 C 12.492188 11.347656 12.6875 11.273438 12.914062 11.289062 C 12.921875 11.273438 12.925781 11.257812 12.933594 11.242188 C 13.015625 11.050781 13.152344 10.917969 13.34375 10.839844 L 13.683594 10.703125 C 13.882812 10.621094 14.082031 10.625 14.277344 10.714844 C 14.425781 10.558594 14.605469 10.480469 14.820312 10.480469 L 15.183594 10.480469 C 15.414062 10.480469 15.605469 10.566406 15.753906 10.738281 Z M 15.753906 10.738281 " fill-opacity="1" fill-rule="nonzero"/><path fill="#ffffff" d="M 14.828125 7.300781 L 15.289062 7.300781 L 15.289062 8.652344 L 14.828125 8.652344 Z M 14.828125 7.300781 " fill-opacity="1" fill-rule="nonzero"/><path fill="#ffffff" d="M 15.910156 20.195312 L 16.371094 20.195312 L 16.371094 21.550781 L 15.910156 21.550781 Z M 15.910156 20.195312 " fill-opacity="1" fill-rule="nonzero"/><path fill="#ffffff" d="M 14.6875 11.230469 C 14.6875 11.402344 14.601562 11.5 14.4375 11.535156 C 14.269531 11.566406 14.15625 11.503906 14.089844 11.347656 C 14.054688 11.269531 13.996094 11.242188 13.914062 11.277344 L 13.578125 11.414062 C 13.542969 11.425781 13.519531 11.449219 13.503906 11.484375 C 13.488281 11.515625 13.488281 11.550781 13.503906 11.582031 L 13.550781 11.695312 C 13.613281 11.851562 13.574219 11.976562 13.433594 12.070312 C 13.292969 12.164062 13.164062 12.152344 13.042969 12.03125 L 12.957031 11.945312 C 12.894531 11.882812 12.832031 11.882812 12.765625 11.945312 L 12.507812 12.203125 C 12.449219 12.265625 12.449219 12.328125 12.507812 12.386719 C 12.628906 12.507812 12.640625 12.640625 12.546875 12.78125 C 12.453125 12.921875 12.328125 12.957031 12.171875 12.894531 C 12.089844 12.859375 12.03125 12.882812 11.996094 12.964844 L 11.851562 13.296875 C 11.839844 13.332031 11.839844 13.363281 11.851562 13.398438 C 11.867188 13.433594 11.890625 13.457031 11.921875 13.46875 L 12.035156 13.515625 C 12.191406 13.582031 12.253906 13.699219 12.21875 13.863281 C 12.183594 14.027344 12.085938 14.113281 11.914062 14.113281 L 11.792969 14.113281 C 11.707031 14.113281 11.660156 14.15625 11.660156 14.242188 L 11.660156 14.605469 C 11.660156 14.695312 11.707031 14.738281 11.792969 14.738281 C 11.964844 14.738281 12.0625 14.824219 12.097656 14.988281 C 12.128906 15.15625 12.066406 15.269531 11.910156 15.335938 C 11.875 15.347656 11.851562 15.371094 11.835938 15.40625 C 11.824219 15.441406 11.824219 15.472656 11.835938 15.507812 L 11.972656 15.84375 C 12.007812 15.925781 12.066406 15.949219 12.148438 15.914062 L 12.261719 15.871094 C 12.417969 15.808594 12.542969 15.847656 12.636719 15.988281 C 12.730469 16.128906 12.714844 16.257812 12.59375 16.375 L 12.507812 16.460938 C 12.449219 16.523438 12.449219 16.585938 12.507812 16.648438 L 12.769531 16.90625 C 12.832031 16.964844 12.894531 16.964844 12.957031 16.90625 C 13.078125 16.785156 13.210938 16.773438 13.347656 16.867188 C 13.488281 16.964844 13.527344 17.089844 13.460938 17.246094 C 13.445312 17.277344 13.445312 17.3125 13.460938 17.34375 C 13.476562 17.378906 13.5 17.402344 13.53125 17.417969 L 13.867188 17.558594 C 13.949219 17.59375 14.007812 17.570312 14.046875 17.488281 L 14.09375 17.375 C 14.160156 17.222656 14.273438 17.160156 14.4375 17.195312 C 14.605469 17.230469 14.6875 17.328125 14.6875 17.496094 L 14.6875 17.617188 C 14.6875 17.707031 14.734375 17.75 14.820312 17.75 L 15.1875 17.75 C 15.273438 17.75 15.316406 17.707031 15.320312 17.621094 C 15.320312 17.449219 15.402344 17.347656 15.570312 17.316406 C 15.734375 17.285156 15.851562 17.347656 15.914062 17.503906 C 15.949219 17.582031 16.007812 17.609375 16.089844 17.574219 L 16.429688 17.4375 C 16.464844 17.425781 16.488281 17.402344 16.503906 17.367188 C 16.515625 17.335938 16.515625 17.300781 16.503906 17.265625 L 16.457031 17.15625 C 16.394531 17 16.433594 16.875 16.574219 16.78125 C 16.710938 16.6875 16.84375 16.699219 16.960938 16.820312 L 17.046875 16.90625 C 17.113281 16.964844 17.175781 16.964844 17.238281 16.90625 L 17.496094 16.648438 C 17.558594 16.585938 17.558594 16.523438 17.496094 16.460938 C 17.378906 16.34375 17.363281 16.210938 17.460938 16.070312 C 17.554688 15.929688 17.679688 15.894531 17.835938 15.957031 C 17.917969 15.992188 17.976562 15.96875 18.011719 15.886719 L 18.152344 15.554688 C 18.167969 15.519531 18.167969 15.488281 18.152344 15.453125 C 18.140625 15.417969 18.117188 15.394531 18.082031 15.378906 L 17.96875 15.332031 C 17.816406 15.269531 17.753906 15.152344 17.789062 14.988281 C 17.820312 14.820312 17.921875 14.738281 18.089844 14.738281 L 18.210938 14.738281 C 18.300781 14.738281 18.34375 14.695312 18.347656 14.605469 L 18.347656 14.242188 C 18.34375 14.15625 18.300781 14.113281 18.210938 14.113281 C 18.042969 14.113281 17.941406 14.027344 17.910156 13.863281 C 17.878906 13.695312 17.941406 13.578125 18.097656 13.515625 C 18.132812 13.503906 18.15625 13.476562 18.167969 13.445312 C 18.183594 13.410156 18.183594 13.378906 18.171875 13.34375 L 18.03125 13.007812 C 18 12.925781 17.941406 12.902344 17.859375 12.933594 L 17.746094 12.980469 C 17.589844 13.042969 17.464844 13.003906 17.371094 12.863281 C 17.277344 12.722656 17.289062 12.59375 17.410156 12.472656 L 17.496094 12.390625 C 17.558594 12.328125 17.558594 12.265625 17.496094 12.203125 L 17.238281 11.945312 C 17.175781 11.886719 17.113281 11.886719 17.046875 11.945312 C 16.925781 12.066406 16.796875 12.078125 16.65625 11.984375 C 16.515625 11.886719 16.480469 11.761719 16.546875 11.605469 C 16.558594 11.574219 16.558594 11.539062 16.546875 11.507812 C 16.53125 11.472656 16.507812 11.449219 16.472656 11.433594 L 16.136719 11.292969 C 16.054688 11.257812 15.996094 11.28125 15.960938 11.363281 L 15.914062 11.472656 C 15.847656 11.628906 15.730469 11.691406 15.566406 11.65625 C 15.402344 11.621094 15.320312 11.523438 15.320312 11.351562 L 15.320312 11.230469 C 15.316406 11.144531 15.273438 11.101562 15.183594 11.101562 L 14.820312 11.101562 C 14.734375 11.101562 14.6875 11.144531 14.6875 11.230469 Z M 17.289062 14.425781 C 17.292969 14.730469 17.234375 15.019531 17.121094 15.300781 C 17.003906 15.582031 16.839844 15.832031 16.625 16.046875 C 16.414062 16.261719 16.164062 16.429688 15.886719 16.546875 C 15.605469 16.664062 15.3125 16.722656 15.011719 16.722656 C 14.707031 16.722656 14.414062 16.667969 14.132812 16.550781 C 13.851562 16.433594 13.605469 16.269531 13.390625 16.054688 C 13.175781 15.84375 13.007812 15.59375 12.890625 15.316406 C 12.777344 15.035156 12.71875 14.742188 12.714844 14.4375 C 12.714844 14.136719 12.773438 13.84375 12.890625 13.5625 C 13.003906 13.28125 13.171875 13.035156 13.386719 12.820312 C 13.597656 12.605469 13.847656 12.441406 14.128906 12.324219 C 14.40625 12.207031 14.699219 12.148438 15.003906 12.148438 C 15.304688 12.148438 15.597656 12.207031 15.875 12.320312 C 16.15625 12.4375 16.402344 12.601562 16.617188 12.8125 C 16.832031 13.027344 16.996094 13.273438 17.113281 13.554688 C 17.230469 13.832031 17.289062 14.121094 17.289062 14.425781 Z M 17.289062 14.425781 " fill-opacity="1" fill-rule="nonzero"/><path fill="#ffffff" d="M 16.671875 14.425781 C 16.671875 14.644531 16.628906 14.855469 16.542969 15.058594 C 16.460938 15.261719 16.339844 15.441406 16.183594 15.597656 C 16.027344 15.753906 15.847656 15.875 15.640625 15.957031 C 15.4375 16.042969 15.222656 16.082031 15.003906 16.082031 C 14.78125 16.082031 14.570312 16.042969 14.363281 15.957031 C 14.160156 15.875 13.980469 15.753906 13.824219 15.597656 C 13.667969 15.441406 13.546875 15.261719 13.460938 15.058594 C 13.378906 14.855469 13.335938 14.644531 13.335938 14.425781 C 13.335938 14.207031 13.378906 13.992188 13.460938 13.789062 C 13.546875 13.585938 13.667969 13.410156 13.824219 13.253906 C 13.980469 13.097656 14.160156 12.976562 14.363281 12.894531 C 14.570312 12.808594 14.78125 12.765625 15.003906 12.765625 C 15.222656 12.765625 15.4375 12.808594 15.640625 12.894531 C 15.847656 12.976562 16.027344 13.097656 16.183594 13.253906 C 16.339844 13.410156 16.460938 13.585938 16.542969 13.789062 C 16.628906 13.992188 16.671875 14.207031 16.671875 14.425781 Z M 16.671875 14.425781 " fill-opacity="1" fill-rule="nonzero"/><path fill="#ffffff" d="M 15.910156 7.300781 L 16.371094 7.300781 L 16.371094 8.652344 L 15.910156 8.652344 Z M 15.910156 7.300781 " fill-opacity="1" fill-rule="nonzero"/><path fill="#ffffff" d="M 7.933594 15.273438 L 9.289062 15.273438 L 9.289062 15.738281 L 7.933594 15.738281 Z M 7.933594 15.273438 " fill-opacity="1" fill-rule="nonzero"/><path fill="#ffffff" d="M 7.933594 16.601562 C 7.933594 16.695312 7.980469 16.742188 8.074219 16.742188 L 9.148438 16.742188 C 9.238281 16.742188 9.285156 16.695312 9.289062 16.601562 L 9.289062 16.355469 L 7.933594 16.355469 Z M 7.933594 16.601562 " fill-opacity="1" fill-rule="nonzero"/><path fill="#ffffff" d="M 7.933594 14.191406 L 9.289062 14.191406 L 9.289062 14.65625 L 7.933594 14.65625 Z M 7.933594 14.191406 " fill-opacity="1" fill-rule="nonzero"/><path fill="#ffffff" d="M 15.003906 5.46875 C 16.046875 5.464844 17.058594 5.640625 18.039062 5.992188 C 19.023438 6.34375 19.914062 6.851562 20.722656 7.511719 L 25.464844 4.453125 C 25.390625 4.378906 25.320312 4.308594 25.25 4.234375 C 24.003906 2.992188 22.582031 2.007812 20.976562 1.285156 C 19.375 0.566406 17.695312 0.148438 15.9375 0.0429688 L 14.777344 5.472656 C 14.851562 5.46875 14.925781 5.46875 15.003906 5.46875 Z M 18.269531 3.394531 C 18.332031 3.246094 18.421875 3.113281 18.539062 3 C 18.652344 2.886719 18.785156 2.796875 18.933594 2.738281 C 19.085938 2.675781 19.238281 2.644531 19.402344 2.644531 C 19.5625 2.644531 19.71875 2.675781 19.871094 2.734375 C 20.019531 2.796875 20.152344 2.886719 20.265625 3 C 20.382812 3.113281 20.46875 3.246094 20.53125 3.394531 C 20.59375 3.546875 20.625 3.699219 20.625 3.863281 C 20.625 4.023438 20.59375 4.179688 20.53125 4.332031 C 20.46875 4.480469 20.378906 4.609375 20.265625 4.726562 C 20.152344 4.839844 20.019531 4.925781 19.867188 4.988281 C 19.71875 5.050781 19.5625 5.082031 19.402344 5.082031 C 19.238281 5.082031 19.082031 5.050781 18.933594 4.988281 C 18.785156 4.929688 18.652344 4.839844 18.535156 4.726562 C 18.421875 4.613281 18.332031 4.480469 18.269531 4.332031 C 18.207031 4.179688 18.179688 4.023438 18.179688 3.863281 C 18.179688 3.699219 18.207031 3.546875 18.269531 3.394531 Z M 18.269531 3.394531 " fill-opacity="1" fill-rule="nonzero"/><path fill="#ffffff" d="M 19.167969 4.417969 C 19.324219 4.480469 19.476562 4.480469 19.632812 4.417969 C 19.785156 4.355469 19.894531 4.246094 19.960938 4.09375 C 20.023438 3.9375 20.023438 3.785156 19.960938 3.632812 C 19.898438 3.480469 19.789062 3.371094 19.632812 3.308594 C 19.480469 3.246094 19.324219 3.246094 19.171875 3.308594 C 19.015625 3.371094 18.90625 3.480469 18.84375 3.632812 C 18.777344 3.785156 18.777344 3.9375 18.839844 4.089844 C 18.90625 4.246094 19.015625 4.355469 19.167969 4.417969 Z M 19.167969 4.417969 " fill-opacity="1" fill-rule="nonzero"/><path fill="#ffffff" d="M 7.933594 13.109375 L 9.289062 13.109375 L 9.289062 13.574219 L 7.933594 13.574219 Z M 7.933594 13.109375 " fill-opacity="1" fill-rule="nonzero"/><path fill="#ffffff" d="M 20.828125 13.109375 L 22.183594 13.109375 L 22.183594 13.574219 L 20.828125 13.574219 Z M 20.828125 13.109375 " fill-opacity="1" fill-rule="nonzero"/><path fill="#ffffff" d="M 20.828125 14.191406 L 22.183594 14.191406 L 22.183594 14.65625 L 20.828125 14.65625 Z M 20.828125 14.191406 " fill-opacity="1" fill-rule="nonzero"/><path fill="#ffffff" d="M 22.183594 12.246094 C 22.183594 12.15625 22.136719 12.109375 22.042969 12.105469 L 20.96875 12.105469 C 20.875 12.109375 20.832031 12.15625 20.828125 12.246094 L 20.828125 12.492188 L 22.183594 12.492188 Z M 22.183594 12.246094 " fill-opacity="1" fill-rule="nonzero"/><path fill="#ffffff" d="M 17.375 21.410156 L 17.375 20.335938 C 17.375 20.242188 17.328125 20.195312 17.238281 20.195312 L 16.992188 20.195312 L 16.992188 21.550781 L 17.238281 21.550781 C 17.328125 21.546875 17.375 21.503906 17.375 21.410156 Z M 17.375 21.410156 " fill-opacity="1" fill-rule="nonzero"/><path fill="#ffffff" d="M 9.148438 12.105469 L 8.074219 12.105469 C 7.980469 12.109375 7.933594 12.15625 7.933594 12.246094 L 7.933594 12.492188 L 9.289062 12.492188 L 9.289062 12.246094 C 9.285156 12.15625 9.238281 12.109375 9.148438 12.105469 Z M 9.148438 12.105469 " fill-opacity="1" fill-rule="nonzero"/><path fill="#ffffff" d="M 13.746094 7.300781 L 14.207031 7.300781 L 14.207031 8.652344 L 13.746094 8.652344 Z M 13.746094 7.300781 " fill-opacity="1" fill-rule="nonzero"/><path fill="#ffffff" d="M 19.402344 24.390625 C 19.320312 24.390625 19.242188 24.40625 19.167969 24.4375 C 19.015625 24.5 18.90625 24.609375 18.839844 24.761719 C 18.777344 24.914062 18.777344 25.070312 18.839844 25.222656 C 18.90625 25.375 19.015625 25.484375 19.171875 25.546875 C 19.324219 25.609375 19.480469 25.609375 19.632812 25.546875 C 19.789062 25.484375 19.898438 25.375 19.960938 25.21875 C 20.023438 25.066406 20.023438 24.914062 19.960938 24.761719 C 19.855469 24.515625 19.667969 24.390625 19.402344 24.390625 Z M 19.402344 24.390625 " fill-opacity="1" fill-rule="nonzero"/><path fill="#ffffff" d="M 4.382812 18.203125 C 4.304688 18.203125 4.226562 18.21875 4.152344 18.246094 C 3.996094 18.3125 3.886719 18.417969 3.824219 18.574219 C 3.761719 18.726562 3.761719 18.878906 3.824219 19.03125 C 3.890625 19.1875 4 19.292969 4.152344 19.359375 C 4.308594 19.421875 4.460938 19.421875 4.617188 19.359375 C 4.773438 19.292969 4.882812 19.1875 4.945312 19.03125 C 5.007812 18.878906 5.007812 18.726562 4.945312 18.574219 C 4.839844 18.324219 4.652344 18.203125 4.382812 18.203125 Z M 4.382812 18.203125 " fill-opacity="1" fill-rule="nonzero"/><path fill="#ffffff" d="M 15.003906 23.382812 C 13.960938 23.382812 12.949219 23.210938 11.96875 22.859375 C 10.984375 22.507812 10.09375 22 9.289062 21.339844 L 4.542969 24.398438 C 4.613281 24.472656 4.6875 24.542969 4.757812 24.617188 C 6 25.859375 7.425781 26.84375 9.027344 27.5625 C 10.632812 28.285156 12.3125 28.699219 14.066406 28.808594 L 15.230469 23.378906 C 15.15625 23.382812 15.078125 23.382812 15.003906 23.382812 Z M 11.734375 25.457031 C 11.671875 25.609375 11.582031 25.738281 11.46875 25.855469 C 11.355469 25.96875 11.222656 26.054688 11.070312 26.117188 C 10.921875 26.179688 10.765625 26.210938 10.605469 26.210938 C 10.441406 26.210938 10.285156 26.179688 10.136719 26.117188 C 9.988281 26.054688 9.855469 25.96875 9.738281 25.855469 C 9.625 25.742188 9.535156 25.609375 9.472656 25.457031 C 9.410156 25.308594 9.378906 25.152344 9.378906 24.992188 C 9.378906 24.828125 9.410156 24.671875 9.472656 24.523438 C 9.535156 24.375 9.625 24.242188 9.742188 24.128906 C 9.855469 24.015625 9.988281 23.925781 10.136719 23.863281 C 10.285156 23.804688 10.441406 23.773438 10.605469 23.773438 C 10.765625 23.773438 10.921875 23.804688 11.074219 23.863281 C 11.222656 23.925781 11.355469 24.015625 11.46875 24.128906 C 11.585938 24.242188 11.671875 24.375 11.734375 24.523438 C 11.796875 24.671875 11.828125 24.828125 11.828125 24.992188 C 11.828125 25.152344 11.796875 25.308594 11.734375 25.457031 Z M 11.734375 25.457031 " fill-opacity="1" fill-rule="nonzero"/><g clip-path="url(#3ac31d1f83)"><path fill="#ffffff" d="M 6.046875 15.292969 L 0.519531 14.121094 C 0.515625 14.222656 0.515625 14.324219 0.515625 14.425781 C 0.511719 16.179688 0.820312 17.875 1.441406 19.515625 C 2.0625 21.152344 2.953125 22.628906 4.117188 23.9375 L 8.804688 20.914062 C 8.019531 20.175781 7.390625 19.320312 6.914062 18.355469 C 6.441406 17.386719 6.152344 16.367188 6.046875 15.292969 Z M 5.515625 19.269531 C 5.386719 19.582031 5.167969 19.800781 4.851562 19.929688 C 4.703125 19.992188 4.546875 20.023438 4.386719 20.023438 C 4.222656 20.023438 4.066406 19.992188 3.917969 19.929688 C 3.769531 19.867188 3.636719 19.78125 3.519531 19.664062 C 3.40625 19.550781 3.316406 19.417969 3.253906 19.269531 C 3.191406 19.121094 3.160156 18.964844 3.160156 18.804688 C 3.160156 18.640625 3.191406 18.484375 3.253906 18.335938 C 3.316406 18.1875 3.40625 18.054688 3.519531 17.941406 C 3.632812 17.824219 3.765625 17.738281 3.917969 17.675781 C 4.066406 17.613281 4.222656 17.582031 4.382812 17.582031 C 4.546875 17.585938 4.703125 17.613281 4.851562 17.675781 C 5 17.738281 5.132812 17.828125 5.25 17.941406 C 5.363281 18.054688 5.453125 18.1875 5.515625 18.335938 C 5.644531 18.644531 5.644531 18.957031 5.515625 19.269531 Z M 5.515625 19.269531 " fill-opacity="1" fill-rule="nonzero"/></g><path fill="#ffffff" d="M 10.835938 24.4375 C 10.683594 24.371094 10.527344 24.371094 10.375 24.4375 C 10.21875 24.5 10.109375 24.609375 10.046875 24.761719 C 9.980469 24.914062 9.980469 25.066406 10.042969 25.21875 C 10.109375 25.375 10.21875 25.484375 10.371094 25.546875 C 10.527344 25.609375 10.679688 25.609375 10.835938 25.546875 C 10.988281 25.484375 11.097656 25.375 11.164062 25.222656 C 11.226562 25.066406 11.226562 24.914062 11.164062 24.761719 C 11.101562 24.609375 10.992188 24.5 10.835938 24.4375 Z M 10.835938 24.4375 " fill-opacity="1" fill-rule="nonzero"/><path fill="#ffffff" d="M 15.871094 23.339844 L 14.695312 28.835938 C 14.796875 28.835938 14.898438 28.839844 15.003906 28.839844 C 16.761719 28.84375 18.464844 28.539062 20.109375 27.921875 C 21.757812 27.304688 23.242188 26.414062 24.5625 25.253906 L 21.523438 20.59375 C 20.777344 21.375 19.917969 22.003906 18.945312 22.476562 C 17.972656 22.949219 16.949219 23.238281 15.871094 23.339844 Z M 20.53125 25.457031 C 20.4375 25.683594 20.289062 25.867188 20.082031 26.003906 C 19.875 26.140625 19.648438 26.210938 19.402344 26.210938 C 19.15625 26.210938 18.929688 26.144531 18.722656 26.007812 C 18.515625 25.867188 18.367188 25.6875 18.269531 25.457031 C 18.207031 25.308594 18.175781 25.152344 18.175781 24.992188 C 18.175781 24.828125 18.207031 24.671875 18.269531 24.523438 C 18.332031 24.375 18.421875 24.242188 18.535156 24.128906 C 18.652344 24.015625 18.785156 23.925781 18.933594 23.863281 C 19.082031 23.804688 19.238281 23.773438 19.402344 23.773438 C 19.5625 23.773438 19.71875 23.804688 19.867188 23.867188 C 20.019531 23.925781 20.148438 24.015625 20.265625 24.128906 C 20.378906 24.242188 20.46875 24.375 20.53125 24.523438 C 20.660156 24.835938 20.664062 25.144531 20.53125 25.457031 Z M 20.53125 25.457031 " fill-opacity="1" fill-rule="nonzero"/><path fill="#ffffff" d="M 25.390625 9.496094 C 25.234375 9.558594 25.125 9.667969 25.0625 9.824219 C 24.996094 9.976562 24.996094 10.128906 25.0625 10.28125 C 25.125 10.433594 25.234375 10.542969 25.390625 10.605469 C 25.542969 10.671875 25.699219 10.671875 25.851562 10.605469 C 26.007812 10.542969 26.117188 10.433594 26.179688 10.28125 C 26.246094 10.128906 26.246094 9.976562 26.179688 9.820312 C 26.117188 9.667969 26.007812 9.558594 25.851562 9.496094 C 25.699219 9.433594 25.542969 9.433594 25.390625 9.496094 Z M 25.390625 9.496094 " fill-opacity="1" fill-rule="nonzero"/><g clip-path="url(#e07d85573e)"><path fill="#ffffff" d="M 21.203125 7.9375 C 21.988281 8.679688 22.617188 9.53125 23.089844 10.5 C 23.566406 11.46875 23.855469 12.488281 23.960938 13.5625 L 29.488281 14.734375 C 29.488281 14.632812 29.492188 14.527344 29.492188 14.425781 C 29.496094 12.671875 29.1875 10.976562 28.566406 9.339844 C 27.945312 7.699219 27.054688 6.226562 25.890625 4.914062 Z M 26.75 9.585938 C 26.8125 9.734375 26.84375 9.890625 26.84375 10.050781 C 26.84375 10.214844 26.8125 10.371094 26.75 10.519531 C 26.691406 10.667969 26.601562 10.800781 26.484375 10.914062 C 26.371094 11.027344 26.238281 11.117188 26.089844 11.179688 C 25.9375 11.238281 25.785156 11.269531 25.621094 11.269531 C 25.460938 11.269531 25.304688 11.238281 25.152344 11.179688 C 25.003906 11.117188 24.871094 11.027344 24.757812 10.914062 C 24.640625 10.800781 24.554688 10.667969 24.492188 10.519531 C 24.429688 10.367188 24.398438 10.214844 24.398438 10.050781 C 24.398438 9.890625 24.429688 9.734375 24.492188 9.582031 C 24.554688 9.433594 24.640625 9.300781 24.757812 9.1875 C 24.871094 9.074219 25.003906 8.984375 25.152344 8.925781 C 25.304688 8.863281 25.460938 8.832031 25.621094 8.832031 C 25.78125 8.832031 25.9375 8.863281 26.089844 8.925781 C 26.238281 8.988281 26.371094 9.074219 26.484375 9.1875 C 26.601562 9.304688 26.6875 9.433594 26.753906 9.585938 Z M 26.75 9.585938 " fill-opacity="1" fill-rule="nonzero"/></g><path fill="#ffffff" d="M 25.390625 19.359375 C 25.542969 19.421875 25.699219 19.421875 25.851562 19.359375 C 26.007812 19.296875 26.117188 19.1875 26.179688 19.03125 C 26.246094 18.878906 26.246094 18.726562 26.179688 18.574219 C 26.117188 18.417969 26.007812 18.3125 25.855469 18.25 C 25.699219 18.183594 25.546875 18.183594 25.390625 18.246094 C 25.234375 18.3125 25.125 18.421875 25.0625 18.574219 C 24.996094 18.726562 24.996094 18.878906 25.0625 19.03125 C 25.125 19.1875 25.234375 19.296875 25.390625 19.359375 Z M 25.390625 19.359375 " fill-opacity="1" fill-rule="nonzero"/><path fill="#ffffff" d="M 12.742188 7.4375 L 12.742188 8.515625 C 12.742188 8.605469 12.789062 8.652344 12.878906 8.652344 L 13.125 8.652344 L 13.125 7.300781 L 12.878906 7.300781 C 12.789062 7.300781 12.742188 7.347656 12.742188 7.4375 Z M 12.742188 7.4375 " fill-opacity="1" fill-rule="nonzero"/><g clip-path="url(#b0afecb60c)"><path fill="#ffffff" d="M 24.003906 14.425781 C 24.003906 15.464844 23.828125 16.472656 23.476562 17.449219 C 23.121094 18.425781 22.613281 19.316406 21.949219 20.113281 L 25.027344 24.832031 C 25.101562 24.761719 25.175781 24.691406 25.25 24.617188 C 26.496094 23.382812 27.480469 21.972656 28.207031 20.375 C 28.933594 18.78125 29.351562 17.109375 29.460938 15.359375 L 24 14.199219 C 24.003906 14.277344 24.003906 14.351562 24.003906 14.425781 Z M 24.492188 18.335938 C 24.554688 18.1875 24.640625 18.054688 24.757812 17.941406 C 24.871094 17.828125 25.003906 17.738281 25.152344 17.675781 C 25.304688 17.613281 25.460938 17.585938 25.621094 17.585938 C 25.785156 17.585938 25.9375 17.613281 26.089844 17.675781 C 26.238281 17.738281 26.371094 17.824219 26.484375 17.941406 C 26.601562 18.054688 26.691406 18.1875 26.75 18.335938 C 26.8125 18.484375 26.84375 18.640625 26.84375 18.804688 C 26.84375 18.964844 26.8125 19.121094 26.75 19.269531 C 26.6875 19.417969 26.601562 19.550781 26.484375 19.664062 C 26.371094 19.78125 26.238281 19.867188 26.089844 19.929688 C 25.9375 19.992188 25.78125 20.023438 25.621094 20.023438 C 25.460938 20.023438 25.304688 19.992188 25.152344 19.929688 C 25.003906 19.867188 24.871094 19.78125 24.757812 19.667969 C 24.640625 19.550781 24.554688 19.421875 24.492188 19.269531 C 24.429688 19.121094 24.398438 18.964844 24.398438 18.804688 C 24.398438 18.640625 24.429688 18.484375 24.492188 18.335938 Z M 24.492188 18.335938 " fill-opacity="1" fill-rule="nonzero"/></g><path fill="#ffffff" d="M 10.835938 4.417969 C 10.992188 4.355469 11.101562 4.246094 11.164062 4.089844 C 11.230469 3.9375 11.230469 3.785156 11.164062 3.632812 C 11.101562 3.480469 10.992188 3.371094 10.835938 3.308594 C 10.679688 3.242188 10.527344 3.246094 10.371094 3.308594 C 10.21875 3.371094 10.109375 3.480469 10.046875 3.632812 C 9.980469 3.785156 9.980469 3.941406 10.046875 4.09375 C 10.109375 4.246094 10.21875 4.355469 10.375 4.417969 C 10.527344 4.480469 10.683594 4.480469 10.835938 4.417969 Z M 10.835938 4.417969 " fill-opacity="1" fill-rule="nonzero"/><g clip-path="url(#063be2358c)"><path fill="#ffffff" d="M 6.003906 14.425781 C 6.003906 13.386719 6.179688 12.378906 6.53125 11.402344 C 6.882812 10.425781 7.390625 9.539062 8.054688 8.738281 L 4.980469 4.019531 C 4.90625 4.089844 4.832031 4.160156 4.757812 4.234375 C 3.511719 5.464844 2.523438 6.878906 1.796875 8.476562 C 1.074219 10.070312 0.65625 11.746094 0.546875 13.492188 L 6.003906 14.652344 C 6.003906 14.578125 6.003906 14.5 6.003906 14.425781 Z M 5.515625 10.519531 C 5.453125 10.667969 5.363281 10.800781 5.25 10.914062 C 5.132812 11.027344 5.003906 11.117188 4.851562 11.175781 C 4.703125 11.238281 4.546875 11.269531 4.382812 11.269531 C 4.222656 11.269531 4.066406 11.238281 3.917969 11.179688 C 3.765625 11.117188 3.636719 11.027344 3.519531 10.914062 C 3.40625 10.800781 3.316406 10.667969 3.253906 10.519531 C 3.191406 10.367188 3.160156 10.214844 3.160156 10.050781 C 3.160156 9.890625 3.191406 9.734375 3.253906 9.585938 C 3.316406 9.433594 3.40625 9.304688 3.519531 9.1875 C 3.636719 9.074219 3.769531 8.988281 3.917969 8.925781 C 4.066406 8.863281 4.222656 8.832031 4.386719 8.832031 C 4.546875 8.832031 4.703125 8.863281 4.851562 8.925781 C 5.003906 8.984375 5.136719 9.074219 5.25 9.1875 C 5.363281 9.300781 5.453125 9.433594 5.515625 9.582031 C 5.578125 9.734375 5.609375 9.890625 5.609375 10.050781 C 5.609375 10.214844 5.578125 10.367188 5.515625 10.519531 Z M 5.515625 10.519531 " fill-opacity="1" fill-rule="nonzero"/></g><path fill="#ffffff" d="M 6.621094 14.425781 C 6.621094 19.023438 10.382812 22.765625 15.003906 22.765625 C 19.625 22.765625 23.386719 19.023438 23.386719 14.425781 C 23.386719 9.828125 19.625 6.085938 15.003906 6.085938 C 10.382812 6.085938 6.621094 9.828125 6.621094 14.425781 Z M 17.996094 7.4375 L 17.996094 8.515625 C 17.996094 8.722656 17.921875 8.902344 17.773438 9.050781 C 17.625 9.199219 17.445312 9.273438 17.238281 9.273438 L 16.886719 9.273438 C 17.664062 9.554688 18.34375 9.992188 18.925781 10.578125 C 19.507812 11.167969 19.9375 11.851562 20.210938 12.632812 L 20.210938 12.246094 C 20.210938 12.039062 20.285156 11.859375 20.433594 11.710938 C 20.582031 11.5625 20.757812 11.488281 20.96875 11.488281 L 22.042969 11.488281 C 22.253906 11.488281 22.433594 11.5625 22.582031 11.710938 C 22.726562 11.859375 22.800781 12.039062 22.800781 12.246094 L 22.800781 16.601562 C 22.800781 16.8125 22.726562 16.992188 22.582031 17.140625 C 22.433594 17.285156 22.253906 17.359375 22.042969 17.359375 L 20.96875 17.359375 C 20.757812 17.359375 20.582031 17.285156 20.433594 17.140625 C 20.285156 16.992188 20.210938 16.8125 20.210938 16.601562 L 20.210938 16.214844 C 19.9375 16.996094 19.507812 17.679688 18.929688 18.269531 C 18.347656 18.859375 17.667969 19.292969 16.890625 19.578125 L 17.238281 19.578125 C 17.445312 19.578125 17.625 19.652344 17.773438 19.800781 C 17.921875 19.945312 17.996094 20.125 17.996094 20.335938 L 17.996094 21.410156 C 17.996094 21.621094 17.921875 21.796875 17.773438 21.945312 C 17.625 22.09375 17.445312 22.167969 17.238281 22.167969 L 12.878906 22.167969 C 12.671875 22.167969 12.492188 22.09375 12.34375 21.945312 C 12.195312 21.796875 12.121094 21.621094 12.121094 21.410156 L 12.121094 20.335938 C 12.121094 20.125 12.195312 19.945312 12.34375 19.796875 C 12.492188 19.652344 12.671875 19.578125 12.878906 19.578125 L 13.113281 19.578125 C 12.386719 19.3125 11.746094 18.910156 11.1875 18.378906 C 10.628906 17.84375 10.203125 17.21875 9.90625 16.507812 L 9.90625 16.601562 C 9.90625 16.8125 9.832031 16.992188 9.683594 17.140625 C 9.535156 17.285156 9.359375 17.359375 9.148438 17.359375 L 8.074219 17.359375 C 7.863281 17.359375 7.683594 17.285156 7.535156 17.140625 C 7.390625 16.992188 7.316406 16.8125 7.316406 16.601562 L 7.316406 12.246094 C 7.316406 12.035156 7.390625 11.859375 7.535156 11.710938 C 7.683594 11.5625 7.863281 11.488281 8.074219 11.488281 L 9.148438 11.488281 C 9.359375 11.488281 9.535156 11.5625 9.683594 11.710938 C 9.832031 11.859375 9.90625 12.035156 9.90625 12.246094 L 9.90625 12.34375 C 10.203125 11.628906 10.632812 11.003906 11.191406 10.472656 C 11.75 9.9375 12.394531 9.539062 13.121094 9.273438 L 12.878906 9.273438 C 12.671875 9.273438 12.492188 9.199219 12.34375 9.050781 C 12.195312 8.902344 12.121094 8.722656 12.121094 8.515625 L 12.121094 7.4375 C 12.121094 7.230469 12.195312 7.050781 12.34375 6.902344 C 12.492188 6.753906 12.671875 6.679688 12.878906 6.679688 L 17.238281 6.679688 C 17.445312 6.679688 17.625 6.753906 17.773438 6.902344 C 17.921875 7.050781 17.996094 7.230469 17.996094 7.4375 Z M 17.996094 7.4375 " fill-opacity="1" fill-rule="nonzero"/><path fill="#ffffff" d="M 14.132812 5.507812 L 15.3125 0.015625 C 15.210938 0.015625 15.105469 0.0117188 15.003906 0.0117188 C 13.246094 0.0078125 11.542969 0.3125 9.894531 0.929688 C 8.25 1.546875 6.765625 2.4375 5.441406 3.597656 L 8.480469 8.257812 C 9.226562 7.476562 10.085938 6.847656 11.058594 6.375 C 12.03125 5.902344 13.058594 5.613281 14.132812 5.507812 Z M 9.472656 3.398438 C 9.601562 3.085938 9.824219 2.863281 10.136719 2.734375 C 10.285156 2.675781 10.441406 2.644531 10.605469 2.644531 C 10.765625 2.644531 10.921875 2.675781 11.074219 2.734375 C 11.222656 2.796875 11.355469 2.886719 11.46875 3 C 11.585938 3.113281 11.671875 3.246094 11.734375 3.394531 C 11.796875 3.546875 11.828125 3.699219 11.828125 3.863281 C 11.828125 4.023438 11.796875 4.179688 11.734375 4.332031 C 11.671875 4.480469 11.585938 4.613281 11.46875 4.726562 C 11.355469 4.839844 11.222656 4.929688 11.074219 4.988281 C 10.921875 5.050781 10.765625 5.082031 10.605469 5.082031 C 10.445312 5.082031 10.289062 5.050781 10.136719 4.988281 C 9.988281 4.925781 9.855469 4.839844 9.742188 4.726562 C 9.625 4.609375 9.539062 4.480469 9.472656 4.332031 C 9.34375 4.019531 9.34375 3.707031 9.472656 3.398438 Z M 9.472656 3.398438 " fill-opacity="1" fill-rule="nonzero"/><path fill="#ffffff" d="M 4.617188 9.496094 C 4.460938 9.433594 4.308594 9.433594 4.152344 9.496094 C 4 9.558594 3.890625 9.667969 3.824219 9.820312 C 3.761719 9.972656 3.761719 10.125 3.824219 10.28125 C 3.886719 10.433594 3.996094 10.542969 4.152344 10.605469 C 4.308594 10.667969 4.460938 10.667969 4.617188 10.605469 C 4.769531 10.542969 4.878906 10.433594 4.945312 10.28125 C 5.007812 10.125 5.007812 9.972656 4.945312 9.820312 C 4.878906 9.667969 4.769531 9.558594 4.617188 9.496094 Z M 4.617188 9.496094 " fill-opacity="1" fill-rule="nonzero"/></svg>