<svg xmlns="http://www.w3.org/2000/svg" xmlns:xlink="http://www.w3.org/1999/xlink" width="40" zoomAndPan="magnify" viewBox="0 0 30 30.000001" height="40" preserveAspectRatio="xMidYMid meet" version="1.0"><defs><clipPath id="7fb6aa8825"><path d="M 13.476562 12.992188 L 17.976562 12.992188 L 17.976562 17.492188 L 13.476562 17.492188 Z M 13.476562 12.992188 " clip-rule="nonzero"/></clipPath><clipPath id="a781bce1ad"><path d="M 15.726562 12.992188 C 14.484375 12.992188 13.476562 14 13.476562 15.242188 C 13.476562 16.484375 14.484375 17.492188 15.726562 17.492188 C 16.96875 17.492188 17.976562 16.484375 17.976562 15.242188 C 17.976562 14 16.96875 12.992188 15.726562 12.992188 Z M 15.726562 12.992188 " clip-rule="nonzero"/></clipPath><clipPath id="3272cdf232"><path d="M 0.476562 0.992188 L 4.976562 0.992188 L 4.976562 5.492188 L 0.476562 5.492188 Z M 0.476562 0.992188 " clip-rule="nonzero"/></clipPath><clipPath id="ae8ec30240"><path d="M 2.726562 0.992188 C 1.484375 0.992188 0.476562 2 0.476562 3.242188 C 0.476562 4.484375 1.484375 5.492188 2.726562 5.492188 C 3.96875 5.492188 4.976562 4.484375 4.976562 3.242188 C 4.976562 2 3.96875 0.992188 2.726562 0.992188 Z M 2.726562 0.992188 " clip-rule="nonzero"/></clipPath><clipPath id="71d8d52c30"><rect x="0" width="5" y="0" height="6"/></clipPath><clipPath id="a74ad5d247"><path d="M 10 4 L 29 4 L 29 21 L 10 21 Z M 10 4 " clip-rule="nonzero"/></clipPath><clipPath id="31c2559b22"><path d="M 0.484375 21.113281 L 23.25 -0.238281 L 29.703125 6.644531 L 6.9375 27.996094 Z M 0.484375 21.113281 " clip-rule="nonzero"/></clipPath><clipPath id="7fe4e81058"><path d="M 0.484375 21.113281 L 23.25 -0.238281 L 29.703125 6.644531 L 6.9375 27.996094 Z M 0.484375 21.113281 " clip-rule="nonzero"/></clipPath><clipPath id="f5fd4cd988"><path d="M 1 17 L 13 17 L 13 23 L 1 23 Z M 1 17 " clip-rule="nonzero"/></clipPath><clipPath id="8bbe23bd3a"><path d="M 0.484375 21.113281 L 23.25 -0.238281 L 29.703125 6.644531 L 6.9375 27.996094 Z M 0.484375 21.113281 " clip-rule="nonzero"/></clipPath><clipPath id="b794f3a317"><path d="M 0.484375 21.113281 L 23.25 -0.238281 L 29.703125 6.644531 L 6.9375 27.996094 Z M 0.484375 21.113281 " clip-rule="nonzero"/></clipPath></defs><g clip-path="url(#7fb6aa8825)"><g clip-path="url(#a781bce1ad)"><g transform="matrix(1, 0, 0, 1, 13, 12)"><g clip-path="url(#71d8d52c30)"><g clip-path="url(#3272cdf232)"><g clip-path="url(#ae8ec30240)"><path fill="#2584d1" d="M 0.476562 0.992188 L 4.976562 0.992188 L 4.976562 5.492188 L 0.476562 5.492188 Z M 0.476562 0.992188 " fill-opacity="1" fill-rule="nonzero"/></g></g></g></g></g></g><g clip-path="url(#a74ad5d247)"><g clip-path="url(#31c2559b22)"><g clip-path="url(#7fe4e81058)"><path fill="#ffffff" d="M 25.945312 4.773438 L 22.371094 8.125 C 22.222656 8.261719 22.105469 8.425781 22.023438 8.613281 L 21.707031 9.332031 C 21.699219 9.347656 21.691406 9.363281 21.6875 9.382812 C 21.074219 8.746094 20.367188 8.277344 19.6875 8.054688 C 18.949219 7.8125 18.324219 7.886719 17.925781 8.257812 L 10.832031 14.914062 C 10.433594 15.285156 10.320312 15.90625 10.515625 16.65625 C 10.703125 17.375 11.148438 18.136719 11.773438 18.804688 C 12.398438 19.472656 13.132812 19.96875 13.839844 20.199219 C 14.574219 20.441406 15.199219 20.367188 15.597656 19.996094 L 22.691406 13.339844 C 23.101562 12.957031 23.207031 12.300781 22.988281 11.527344 C 23.171875 11.441406 23.355469 11.371094 23.550781 11.320312 L 24.296875 11.121094 C 24.542969 11.058594 24.753906 10.941406 24.9375 10.769531 L 28.464844 7.460938 C 28.90625 7.046875 28.699219 6.132812 27.992188 5.378906 C 27.285156 4.625 26.386719 4.359375 25.945312 4.773438 Z M 22.480469 13.113281 C 22.472656 13.121094 22.46875 13.125 22.464844 13.128906 C 22.460938 13.132812 22.453125 13.136719 22.449219 13.140625 C 22.441406 13.148438 22.4375 13.152344 22.429688 13.15625 C 22.425781 13.160156 22.421875 13.164062 22.417969 13.167969 C 22.410156 13.171875 22.402344 13.175781 22.398438 13.183594 C 22.394531 13.183594 22.390625 13.1875 22.386719 13.191406 C 22.378906 13.195312 22.371094 13.203125 22.363281 13.207031 C 22.359375 13.210938 22.355469 13.210938 22.355469 13.210938 C 22.34375 13.21875 22.335938 13.222656 22.324219 13.230469 C 22.324219 13.230469 22.320312 13.230469 22.320312 13.234375 C 22.308594 13.238281 22.296875 13.246094 22.285156 13.25 C 22.285156 13.25 22.285156 13.253906 22.285156 13.253906 C 22.273438 13.257812 22.261719 13.265625 22.25 13.269531 C 22.25 13.269531 22.25 13.269531 22.246094 13.269531 C 22.011719 13.378906 21.714844 13.402344 21.375 13.339844 C 21.371094 13.339844 21.371094 13.339844 21.367188 13.339844 C 21.355469 13.335938 21.34375 13.332031 21.332031 13.332031 C 21.328125 13.328125 21.320312 13.328125 21.3125 13.328125 C 21.304688 13.324219 21.296875 13.324219 21.289062 13.320312 C 21.277344 13.320312 21.269531 13.316406 21.257812 13.316406 C 21.253906 13.3125 21.25 13.3125 21.242188 13.3125 C 21.230469 13.308594 21.214844 13.304688 21.203125 13.300781 L 21.199219 13.300781 C 21.144531 13.285156 21.085938 13.269531 21.027344 13.25 C 20.476562 13.066406 19.898438 12.707031 19.378906 12.222656 C 19.371094 12.214844 19.367188 12.210938 19.359375 12.203125 C 19.269531 12.121094 19.179688 12.03125 19.09375 11.9375 C 19.023438 11.863281 18.953125 11.785156 18.886719 11.703125 C 18.886719 11.703125 18.882812 11.699219 18.882812 11.699219 C 18.40625 11.132812 18.0625 10.515625 17.914062 9.929688 C 17.910156 9.929688 17.910156 9.925781 17.910156 9.925781 C 17.90625 9.910156 17.902344 9.894531 17.898438 9.878906 C 17.898438 9.875 17.898438 9.871094 17.894531 9.867188 C 17.890625 9.847656 17.886719 9.832031 17.882812 9.816406 C 17.882812 9.8125 17.882812 9.808594 17.882812 9.808594 C 17.878906 9.792969 17.878906 9.78125 17.875 9.765625 C 17.875 9.761719 17.871094 9.753906 17.871094 9.75 C 17.867188 9.738281 17.867188 9.722656 17.863281 9.710938 C 17.863281 9.703125 17.863281 9.699219 17.859375 9.691406 C 17.859375 9.679688 17.855469 9.667969 17.855469 9.652344 C 17.855469 9.648438 17.851562 9.640625 17.851562 9.636719 C 17.851562 9.625 17.847656 9.613281 17.847656 9.601562 C 17.847656 9.59375 17.84375 9.589844 17.84375 9.582031 C 17.84375 9.570312 17.839844 9.558594 17.839844 9.546875 C 17.839844 9.539062 17.839844 9.53125 17.839844 9.527344 C 17.835938 9.515625 17.835938 9.503906 17.835938 9.496094 C 17.835938 9.488281 17.832031 9.480469 17.832031 9.472656 C 17.832031 9.464844 17.832031 9.457031 17.832031 9.449219 C 17.832031 9.4375 17.832031 9.429688 17.828125 9.421875 C 17.828125 9.414062 17.828125 9.40625 17.828125 9.398438 C 17.828125 9.386719 17.828125 9.378906 17.828125 9.367188 C 17.828125 9.363281 17.828125 9.355469 17.828125 9.347656 C 17.828125 9.335938 17.828125 9.328125 17.828125 9.316406 C 17.828125 9.3125 17.828125 9.304688 17.828125 9.300781 C 17.828125 9.289062 17.828125 9.277344 17.828125 9.265625 C 17.828125 9.261719 17.828125 9.257812 17.828125 9.25 C 17.828125 9.238281 17.832031 9.230469 17.832031 9.21875 C 17.832031 9.214844 17.832031 9.207031 17.832031 9.203125 C 17.832031 9.191406 17.832031 9.179688 17.835938 9.167969 C 17.835938 9.164062 17.835938 9.164062 17.835938 9.160156 C 17.835938 9.144531 17.839844 9.132812 17.839844 9.121094 C 17.839844 9.121094 17.839844 9.117188 17.839844 9.113281 C 17.84375 9.101562 17.84375 9.089844 17.847656 9.078125 C 17.847656 9.074219 17.847656 9.070312 17.847656 9.070312 C 17.851562 9.054688 17.851562 9.042969 17.855469 9.03125 C 17.855469 9.03125 17.855469 9.027344 17.855469 9.027344 C 17.859375 9.011719 17.859375 9 17.863281 8.988281 C 17.863281 8.984375 17.863281 8.984375 17.863281 8.980469 C 17.867188 8.96875 17.871094 8.957031 17.875 8.945312 C 17.875 8.941406 17.875 8.941406 17.875 8.941406 C 17.878906 8.929688 17.882812 8.914062 17.886719 8.902344 L 17.886719 8.898438 C 17.890625 8.886719 17.894531 8.875 17.898438 8.859375 C 17.898438 8.859375 17.902344 8.859375 17.902344 8.855469 C 17.90625 8.84375 17.910156 8.832031 17.914062 8.820312 C 17.921875 8.804688 17.925781 8.792969 17.929688 8.78125 C 17.929688 8.78125 17.933594 8.777344 17.933594 8.777344 C 17.9375 8.765625 17.941406 8.753906 17.949219 8.746094 C 17.949219 8.742188 17.949219 8.742188 17.949219 8.742188 C 17.957031 8.730469 17.960938 8.71875 17.96875 8.707031 C 17.96875 8.707031 17.96875 8.703125 17.96875 8.703125 C 17.976562 8.691406 17.980469 8.683594 17.988281 8.671875 C 17.988281 8.671875 17.988281 8.671875 17.988281 8.667969 C 17.996094 8.660156 18.003906 8.648438 18.007812 8.636719 C 18.011719 8.636719 18.011719 8.632812 18.015625 8.632812 C 18.019531 8.621094 18.027344 8.613281 18.03125 8.605469 C 18.035156 8.601562 18.035156 8.601562 18.039062 8.597656 C 18.042969 8.589844 18.050781 8.582031 18.058594 8.574219 C 18.058594 8.570312 18.0625 8.566406 18.066406 8.566406 C 18.070312 8.558594 18.078125 8.550781 18.082031 8.542969 C 18.085938 8.539062 18.089844 8.535156 18.09375 8.53125 C 18.097656 8.527344 18.105469 8.519531 18.109375 8.515625 C 18.113281 8.507812 18.117188 8.503906 18.121094 8.5 C 18.128906 8.496094 18.132812 8.492188 18.136719 8.484375 C 18.449219 8.195312 18.964844 8.144531 19.589844 8.351562 C 20.246094 8.566406 20.933594 9.03125 21.523438 9.660156 C 21.527344 9.664062 21.53125 9.667969 21.53125 9.671875 C 21.417969 9.863281 21.285156 10.042969 21.132812 10.207031 L 21.128906 10.214844 C 21.105469 10.238281 21.085938 10.257812 21.0625 10.28125 C 21.058594 10.285156 21.050781 10.292969 21.046875 10.296875 C 21.023438 10.324219 21 10.347656 20.972656 10.371094 L 20.570312 10.75 C 20.566406 10.75 20.566406 10.753906 20.5625 10.753906 C 20.542969 10.773438 20.527344 10.789062 20.511719 10.808594 C 20.5 10.816406 20.492188 10.828125 20.484375 10.835938 C 20.308594 11.046875 20.226562 11.289062 20.242188 11.5625 C 20.257812 11.839844 20.367188 12.070312 20.566406 12.257812 C 20.765625 12.449219 21 12.542969 21.277344 12.542969 C 21.550781 12.542969 21.789062 12.453125 21.988281 12.261719 L 22.191406 12.074219 C 22.214844 12.054688 22.234375 12.03125 22.257812 12.011719 C 22.265625 12.007812 22.273438 12 22.28125 11.992188 C 22.296875 11.980469 22.3125 11.964844 22.328125 11.953125 C 22.335938 11.945312 22.34375 11.9375 22.351562 11.933594 C 22.367188 11.917969 22.382812 11.90625 22.402344 11.894531 C 22.410156 11.886719 22.417969 11.882812 22.425781 11.875 C 22.441406 11.863281 22.460938 11.847656 22.476562 11.835938 C 22.484375 11.832031 22.492188 11.824219 22.5 11.820312 C 22.523438 11.800781 22.546875 11.785156 22.574219 11.769531 C 22.574219 11.765625 22.578125 11.765625 22.582031 11.761719 C 22.605469 11.746094 22.625 11.730469 22.648438 11.71875 C 22.65625 11.710938 22.667969 11.707031 22.675781 11.699219 C 22.6875 11.695312 22.699219 11.6875 22.707031 11.679688 C 22.871094 12.308594 22.789062 12.824219 22.480469 13.113281 Z M 28.347656 6.578125 C 28.421875 6.867188 28.386719 7.105469 28.253906 7.234375 C 28.246094 7.238281 28.242188 7.242188 28.238281 7.242188 C 28.234375 7.246094 28.230469 7.25 28.226562 7.253906 C 28.222656 7.257812 28.214844 7.261719 28.210938 7.265625 C 28.207031 7.269531 28.203125 7.273438 28.195312 7.273438 C 28.191406 7.277344 28.1875 7.28125 28.183594 7.285156 C 28.175781 7.285156 28.171875 7.289062 28.164062 7.292969 C 28.160156 7.292969 28.15625 7.296875 28.148438 7.300781 C 28.144531 7.300781 28.136719 7.304688 28.132812 7.308594 C 28.128906 7.308594 28.121094 7.308594 28.117188 7.3125 C 28.109375 7.316406 28.105469 7.316406 28.097656 7.320312 C 28.09375 7.320312 28.089844 7.320312 28.085938 7.320312 C 28.078125 7.324219 28.070312 7.328125 28.058594 7.328125 C 28.054688 7.328125 28.050781 7.332031 28.050781 7.332031 C 28.039062 7.332031 28.03125 7.335938 28.019531 7.335938 C 28.015625 7.335938 28.011719 7.335938 28.007812 7.335938 C 28 7.339844 27.988281 7.339844 27.980469 7.339844 C 27.976562 7.339844 27.972656 7.339844 27.972656 7.339844 C 27.960938 7.34375 27.949219 7.34375 27.9375 7.34375 C 27.933594 7.34375 27.929688 7.34375 27.925781 7.34375 C 27.914062 7.34375 27.902344 7.34375 27.890625 7.34375 C 27.890625 7.34375 27.890625 7.34375 27.886719 7.34375 C 27.875 7.339844 27.859375 7.339844 27.84375 7.339844 C 27.84375 7.339844 27.839844 7.339844 27.835938 7.339844 C 27.824219 7.335938 27.808594 7.335938 27.796875 7.332031 C 27.789062 7.332031 27.78125 7.332031 27.773438 7.328125 C 27.765625 7.328125 27.757812 7.328125 27.746094 7.324219 C 27.734375 7.320312 27.71875 7.320312 27.703125 7.316406 C 27.699219 7.316406 27.699219 7.3125 27.699219 7.3125 C 27.664062 7.304688 27.628906 7.296875 27.59375 7.285156 C 27.554688 7.269531 27.515625 7.257812 27.476562 7.242188 C 27.472656 7.238281 27.472656 7.238281 27.472656 7.238281 C 27.460938 7.234375 27.449219 7.230469 27.4375 7.222656 C 27.429688 7.21875 27.421875 7.214844 27.410156 7.210938 C 27.40625 7.210938 27.402344 7.207031 27.398438 7.207031 C 27.140625 7.082031 26.878906 6.886719 26.644531 6.640625 C 26.539062 6.527344 26.441406 6.40625 26.355469 6.277344 C 26.339844 6.257812 26.328125 6.234375 26.316406 6.214844 C 26.3125 6.210938 26.308594 6.207031 26.304688 6.203125 C 26.296875 6.183594 26.285156 6.167969 26.277344 6.152344 C 26.273438 6.152344 26.273438 6.148438 26.273438 6.148438 C 26.214844 6.046875 26.164062 5.945312 26.125 5.839844 L 26.121094 5.839844 C 26.097656 5.777344 26.078125 5.714844 26.0625 5.652344 C 26.058594 5.632812 26.054688 5.617188 26.050781 5.597656 C 26.050781 5.59375 26.046875 5.589844 26.046875 5.582031 C 26.042969 5.570312 26.042969 5.558594 26.039062 5.546875 C 26.039062 5.539062 26.039062 5.53125 26.035156 5.523438 C 26.035156 5.511719 26.035156 5.503906 26.03125 5.496094 C 26.03125 5.484375 26.03125 5.472656 26.027344 5.460938 C 26.027344 5.457031 26.027344 5.453125 26.027344 5.445312 C 26.027344 5.433594 26.023438 5.421875 26.023438 5.40625 C 26.023438 5.40625 26.023438 5.402344 26.023438 5.398438 C 26.023438 5.382812 26.023438 5.371094 26.023438 5.359375 C 26.023438 5.355469 26.023438 5.355469 26.023438 5.351562 C 26.023438 5.339844 26.023438 5.328125 26.027344 5.316406 C 26.027344 5.3125 26.027344 5.308594 26.027344 5.308594 C 26.027344 5.296875 26.027344 5.285156 26.03125 5.273438 C 26.03125 5.269531 26.03125 5.265625 26.03125 5.265625 C 26.03125 5.253906 26.035156 5.242188 26.035156 5.234375 C 26.039062 5.230469 26.039062 5.226562 26.039062 5.222656 C 26.039062 5.214844 26.042969 5.203125 26.046875 5.195312 C 26.046875 5.191406 26.046875 5.1875 26.046875 5.183594 C 26.050781 5.175781 26.054688 5.167969 26.058594 5.15625 C 26.058594 5.15625 26.058594 5.152344 26.058594 5.148438 C 26.0625 5.140625 26.066406 5.132812 26.070312 5.125 C 26.070312 5.121094 26.074219 5.117188 26.074219 5.113281 C 26.078125 5.105469 26.082031 5.101562 26.085938 5.09375 C 26.085938 5.089844 26.089844 5.085938 26.089844 5.082031 C 26.09375 5.074219 26.097656 5.070312 26.101562 5.0625 C 26.105469 5.058594 26.109375 5.054688 26.109375 5.050781 C 26.113281 5.046875 26.117188 5.039062 26.121094 5.035156 C 26.125 5.03125 26.128906 5.027344 26.132812 5.023438 C 26.136719 5.019531 26.140625 5.015625 26.144531 5.011719 C 26.148438 5.007812 26.152344 5.003906 26.15625 5 C 26.289062 4.871094 26.53125 4.855469 26.816406 4.945312 C 27.136719 5.050781 27.472656 5.28125 27.765625 5.589844 C 28.054688 5.902344 28.261719 6.25 28.347656 6.578125 Z M 28.347656 6.578125 " fill-opacity="1" fill-rule="nonzero"/></g></g></g><g clip-path="url(#f5fd4cd988)"><g clip-path="url(#8bbe23bd3a)"><g clip-path="url(#b794f3a317)"><path fill="#ffffff" d="M 11.574219 18.992188 C 11.363281 18.769531 11.167969 18.527344 10.996094 18.273438 C 10.96875 18.230469 10.929688 18.210938 10.882812 18.203125 L 6.605469 17.800781 C 6.222656 17.765625 5.863281 17.832031 5.523438 18 L 2.296875 19.601562 C 2.082031 19.710938 1.914062 19.871094 1.800781 20.085938 C 1.683594 20.296875 1.640625 20.527344 1.671875 20.765625 L 1.847656 22.152344 C 1.871094 22.363281 1.964844 22.535156 2.132812 22.664062 C 2.296875 22.796875 2.488281 22.851562 2.699219 22.832031 L 3.269531 22.773438 C 3.378906 22.761719 3.484375 22.730469 3.578125 22.675781 C 3.675781 22.621094 3.753906 22.546875 3.820312 22.457031 C 3.886719 22.371094 3.929688 22.269531 3.953125 22.164062 C 3.976562 22.054688 3.976562 21.945312 3.957031 21.835938 L 3.847656 21.324219 L 6.167969 20.175781 L 11.675781 20.738281 C 12.039062 20.777344 12.355469 20.667969 12.621094 20.417969 L 12.828125 20.226562 C 12.863281 20.191406 12.878906 20.148438 12.875 20.097656 C 12.867188 20.046875 12.84375 20.007812 12.796875 19.980469 C 12.371094 19.734375 11.945312 19.390625 11.574219 18.992188 Z M 11.574219 18.992188 " fill-opacity="1" fill-rule="nonzero"/></g></g></g></svg>