<svg xmlns="http://www.w3.org/2000/svg" xmlns:xlink="http://www.w3.org/1999/xlink" width="40" zoomAndPan="magnify" viewBox="0 0 30 30.000001" height="40" preserveAspectRatio="xMidYMid meet" version="1.0"><defs><clipPath id="b19bd15616"><path d="M 7.453125 20.539062 L 8.886719 20.539062 L 8.886719 21.972656 L 7.453125 21.972656 Z M 7.453125 20.539062 " clip-rule="nonzero"/></clipPath><clipPath id="a9e332e934"><path d="M 8.167969 20.539062 C 7.773438 20.539062 7.453125 20.859375 7.453125 21.257812 C 7.453125 21.652344 7.773438 21.972656 8.167969 21.972656 C 8.5625 21.972656 8.886719 21.652344 8.886719 21.257812 C 8.886719 20.859375 8.5625 20.539062 8.167969 20.539062 Z M 8.167969 20.539062 " clip-rule="nonzero"/></clipPath><clipPath id="199d637880"><path d="M 0.453125 0.539062 L 1.886719 0.539062 L 1.886719 1.972656 L 0.453125 1.972656 Z M 0.453125 0.539062 " clip-rule="nonzero"/></clipPath><clipPath id="896711a78e"><path d="M 1.167969 0.539062 C 0.773438 0.539062 0.453125 0.859375 0.453125 1.257812 C 0.453125 1.652344 0.773438 1.972656 1.167969 1.972656 C 1.5625 1.972656 1.886719 1.652344 1.886719 1.257812 C 1.886719 0.859375 1.5625 0.539062 1.167969 0.539062 Z M 1.167969 0.539062 " clip-rule="nonzero"/></clipPath><clipPath id="3bad2ef616"><rect x="0" width="2" y="0" height="2"/></clipPath><clipPath id="8731061c6f"><path d="M 2 2 L 29 2 L 29 27 L 2 27 Z M 2 2 " clip-rule="nonzero"/></clipPath><clipPath id="3270dbb315"><path d="M 25.214844 0.00390625 L 31.015625 6.5 L 5.5625 29.214844 L -0.238281 22.714844 Z M 25.214844 0.00390625 " clip-rule="nonzero"/></clipPath><clipPath id="a192b30abc"><path d="M 25.214844 0.00390625 L 31.015625 6.5 L 5.5625 29.214844 L -0.238281 22.714844 Z M 25.214844 0.00390625 " clip-rule="nonzero"/></clipPath></defs><g clip-path="url(#b19bd15616)"><g clip-path="url(#a9e332e934)"><g transform="matrix(1, 0, 0, 1, 7, 20)"><g clip-path="url(#3bad2ef616)"><g clip-path="url(#199d637880)"><g clip-path="url(#896711a78e)"><path fill="#2584d1" d="M 0.453125 0.539062 L 1.886719 0.539062 L 1.886719 1.972656 L 0.453125 1.972656 Z M 0.453125 0.539062 " fill-opacity="1" fill-rule="nonzero"/></g></g></g></g></g></g><g clip-path="url(#8731061c6f)"><g clip-path="url(#3270dbb315)"><g clip-path="url(#a192b30abc)"><path fill="#ffffff" d="M 26.820312 6.050781 C 26.871094 6.109375 26.917969 6.171875 26.960938 6.234375 L 27.898438 5.394531 C 28.535156 4.828125 28.589844 3.855469 28.023438 3.222656 C 27.457031 2.585938 26.484375 2.53125 25.851562 3.097656 L 24.910156 3.9375 C 24.96875 3.984375 25.023438 4.039062 25.074219 4.097656 Z M 27.335938 3.832031 C 27.59375 4.121094 27.566406 4.5625 27.28125 4.816406 C 26.992188 5.074219 26.554688 5.046875 26.296875 4.761719 C 26.042969 4.472656 26.066406 4.035156 26.351562 3.777344 C 26.640625 3.519531 27.082031 3.546875 27.335938 3.832031 Z M 17.769531 6.773438 C 18.023438 6.464844 18.476562 6.414062 18.789062 6.664062 L 24.277344 11.078125 C 24.589844 11.332031 24.636719 11.789062 24.386719 12.097656 C 24.136719 12.410156 23.679688 12.460938 23.367188 12.210938 L 17.882812 7.796875 C 17.570312 7.542969 17.519531 7.085938 17.769531 6.773438 Z M 22.542969 13.738281 C 22.292969 14.050781 21.835938 14.097656 21.523438 13.847656 L 16.035156 9.433594 C 15.722656 9.183594 15.675781 8.726562 15.925781 8.414062 C 16.175781 8.101562 16.632812 8.050781 16.945312 8.304688 L 22.433594 12.71875 C 22.746094 12.96875 22.792969 13.425781 22.542969 13.738281 Z M 20.699219 15.375 C 20.445312 15.6875 19.988281 15.738281 19.679688 15.488281 L 14.191406 11.070312 C 13.878906 10.820312 13.828125 10.363281 14.082031 10.050781 C 14.332031 9.738281 14.789062 9.691406 15.101562 9.941406 L 20.585938 14.355469 C 20.898438 14.605469 20.949219 15.0625 20.699219 15.375 Z M 18.851562 17.015625 C 18.601562 17.328125 18.144531 17.375 17.832031 17.125 L 12.347656 12.710938 C 12.035156 12.457031 11.984375 12 12.234375 11.691406 C 12.488281 11.378906 12.945312 11.328125 13.253906 11.578125 L 18.742188 15.996094 C 19.054688 16.246094 19.105469 16.703125 18.851562 17.015625 Z M 17.007812 18.652344 C 16.757812 18.964844 16.300781 19.015625 15.988281 18.761719 L 10.5 14.347656 C 10.1875 14.097656 10.140625 13.640625 10.390625 13.328125 C 10.640625 13.015625 11.097656 12.964844 11.410156 13.21875 L 16.898438 17.632812 C 17.210938 17.882812 17.257812 18.339844 17.007812 18.652344 Z M 19.320312 12.460938 L 19.03125 12.71875 L 17.292969 11.320312 L 17.582031 11.0625 Z M 15.640625 15.742188 L 15.351562 16.003906 L 13.613281 14.605469 L 13.902344 14.347656 Z M 17.480469 14.101562 L 17.191406 14.359375 L 15.453125 12.964844 L 15.742188 12.707031 Z M 19.132812 9.679688 L 19.425781 9.421875 L 21.160156 10.816406 L 20.871094 11.078125 Z M 13.796875 17.386719 L 13.507812 17.644531 L 11.773438 16.246094 L 12.0625 15.988281 Z M 7.753906 23.117188 L 7.78125 23.09375 L 7.953125 23.011719 C 8.246094 22.871094 8.523438 22.6875 8.765625 22.46875 L 10.003906 21.363281 C 10.269531 21.40625 10.546875 21.332031 10.761719 21.144531 L 11.503906 20.480469 L 10.984375 19.898438 L 11.957031 19.027344 L 10.222656 17.632812 L 9.523438 18.257812 L 9.003906 17.675781 L 8.257812 18.339844 C 8.042969 18.527344 7.941406 18.796875 7.953125 19.0625 L 6.714844 20.167969 C 6.46875 20.386719 6.257812 20.640625 6.082031 20.917969 L 5.984375 21.078125 L 5.960938 21.097656 C 5.398438 21.601562 4.710938 21.949219 3.96875 22.09375 C 3.585938 22.167969 3.21875 22.339844 2.90625 22.617188 C 1.992188 23.425781 1.898438 24.863281 2.703125 25.785156 C 3.53125 26.726562 4.964844 26.8125 5.894531 25.980469 C 6.203125 25.707031 6.421875 25.363281 6.539062 24.996094 C 6.773438 24.273438 7.1875 23.625 7.753906 23.117188 Z M 3.382812 25.207031 C 2.886719 24.648438 2.933594 23.785156 3.492188 23.289062 C 4.050781 22.789062 4.914062 22.839844 5.410156 23.398438 C 5.910156 23.957031 5.859375 24.816406 5.300781 25.316406 C 4.742188 25.8125 3.882812 25.765625 3.382812 25.207031 Z M 21.769531 7.328125 L 20.757812 6.191406 L 22.941406 4.242188 C 23.484375 3.757812 24.3125 3.804688 24.792969 4.347656 L 26.539062 6.300781 C 27.019531 6.84375 26.972656 7.671875 26.433594 8.152344 L 24.246094 10.105469 L 23.234375 8.96875 L 22.710938 9.433594 L 20.976562 8.039062 Z M 15.164062 20.289062 C 14.910156 20.601562 14.457031 20.652344 14.144531 20.402344 L 8.65625 15.984375 C 8.34375 15.734375 8.292969 15.277344 8.546875 14.964844 C 8.796875 14.652344 9.253906 14.605469 9.566406 14.855469 L 15.050781 19.269531 C 15.363281 19.523438 15.414062 19.976562 15.164062 20.289062 Z M 15.164062 20.289062 " fill-opacity="1" fill-rule="nonzero"/></g></g></g></svg>