<svg xmlns="http://www.w3.org/2000/svg" xmlns:xlink="http://www.w3.org/1999/xlink" width="40" zoomAndPan="magnify" viewBox="0 0 30 30.000001" height="40" preserveAspectRatio="xMidYMid meet" version="1.0"><defs><clipPath id="abc0da6754"><path d="M 0.484375 0.570312 L 28.789062 0.570312 L 28.789062 28.878906 L 0.484375 28.878906 Z M 0.484375 0.570312 " clip-rule="nonzero"/></clipPath></defs><g clip-path="url(#abc0da6754)"><path fill="#ffffff" d="M 24.769531 4.738281 C 22.082031 2.050781 18.511719 0.570312 14.710938 0.570312 C 10.910156 0.570312 7.339844 2.050781 4.652344 4.738281 C 1.964844 7.425781 0.484375 11 0.484375 14.796875 C 0.484375 18.597656 1.964844 22.171875 4.652344 24.859375 C 7.339844 27.546875 10.910156 29.027344 14.710938 29.027344 C 18.511719 29.027344 22.082031 27.546875 24.769531 24.859375 C 27.457031 22.171875 28.9375 18.597656 28.9375 14.796875 C 28.9375 11 27.457031 7.425781 24.769531 4.738281 Z M 26.4375 15.789062 C 26.445312 15.796875 27.339844 16.257812 28.078125 17.449219 C 27.664062 19.546875 26.765625 21.472656 25.507812 23.105469 C 25.34375 21.921875 24.894531 21.226562 24.871094 21.191406 C 24.777344 21.054688 24.59375 21.015625 24.457031 21.105469 C 24.320312 21.199219 24.28125 21.382812 24.371094 21.519531 C 24.375 21.527344 24.914062 22.375 24.964844 23.765625 C 23.589844 25.335938 21.859375 26.585938 19.90625 27.398438 C 20.355469 26.285156 20.316406 25.457031 20.3125 25.414062 C 20.300781 25.25 20.160156 25.125 19.996094 25.132812 C 19.832031 25.144531 19.707031 25.285156 19.714844 25.449219 C 19.714844 25.460938 19.761719 26.464844 19.101562 27.699219 C 17.722656 28.171875 16.246094 28.425781 14.710938 28.425781 C 14.101562 28.425781 13.496094 28.386719 12.90625 28.308594 C 13.855469 27.570312 14.234375 26.832031 14.253906 26.792969 C 14.328125 26.644531 14.269531 26.464844 14.121094 26.390625 C 13.972656 26.316406 13.792969 26.378906 13.71875 26.523438 C 13.714844 26.535156 13.25 27.425781 12.0625 28.167969 C 9.964844 27.75 8.039062 26.855469 6.40625 25.59375 C 7.585938 25.429688 8.285156 24.980469 8.316406 24.957031 C 8.457031 24.867188 8.492188 24.683594 8.402344 24.542969 C 8.3125 24.40625 8.125 24.367188 7.988281 24.457031 C 7.980469 24.460938 7.136719 25 5.742188 25.050781 C 4.175781 23.675781 2.921875 21.949219 2.113281 19.992188 C 3.027344 20.367188 3.753906 20.402344 4.003906 20.402344 C 4.054688 20.402344 4.085938 20.402344 4.09375 20.398438 C 4.257812 20.390625 4.382812 20.25 4.375 20.085938 C 4.367188 19.917969 4.222656 19.792969 4.058594 19.800781 C 4.050781 19.800781 3.042969 19.847656 1.808594 19.1875 C 1.339844 17.808594 1.082031 16.332031 1.082031 14.796875 C 1.082031 14.1875 1.125 13.585938 1.203125 12.996094 C 1.9375 13.945312 2.679688 14.324219 2.714844 14.339844 C 2.757812 14.363281 2.804688 14.375 2.847656 14.375 C 2.960938 14.375 3.0625 14.3125 3.117188 14.207031 C 3.191406 14.0625 3.132812 13.878906 2.984375 13.804688 C 2.976562 13.800781 2.082031 13.335938 1.34375 12.148438 C 1.757812 10.050781 2.65625 8.125 3.914062 6.492188 C 4.078125 7.675781 4.527344 8.371094 4.550781 8.40625 C 4.609375 8.492188 4.703125 8.539062 4.800781 8.539062 C 4.859375 8.539062 4.914062 8.523438 4.964844 8.488281 C 5.105469 8.398438 5.140625 8.214844 5.050781 8.074219 C 5.046875 8.066406 4.507812 7.234375 4.457031 5.832031 C 5.832031 4.261719 7.5625 3.007812 9.519531 2.199219 C 9.0625 3.308594 9.105469 4.140625 9.109375 4.183594 C 9.117188 4.339844 9.25 4.464844 9.40625 4.464844 C 9.414062 4.464844 9.417969 4.464844 9.425781 4.464844 C 9.589844 4.453125 9.714844 4.3125 9.707031 4.148438 C 9.707031 4.136719 9.65625 3.140625 10.320312 1.894531 C 11.699219 1.425781 13.175781 1.171875 14.710938 1.171875 C 15.320312 1.171875 15.925781 1.210938 16.515625 1.289062 C 15.566406 2.027344 15.1875 2.765625 15.167969 2.804688 C 15.09375 2.953125 15.152344 3.128906 15.300781 3.203125 C 15.34375 3.226562 15.390625 3.238281 15.433594 3.238281 C 15.542969 3.238281 15.648438 3.175781 15.703125 3.074219 C 15.707031 3.0625 16.171875 2.171875 17.359375 1.429688 C 19.457031 1.84375 21.382812 2.742188 23.015625 4.003906 C 21.832031 4.167969 21.136719 4.617188 21.105469 4.640625 C 20.964844 4.730469 20.929688 4.914062 21.019531 5.054688 C 21.074219 5.140625 21.171875 5.1875 21.269531 5.1875 C 21.324219 5.1875 21.382812 5.171875 21.433594 5.140625 C 21.441406 5.132812 22.285156 4.59375 23.679688 4.546875 C 25.246094 5.921875 26.5 7.648438 27.308594 9.605469 C 26.199219 9.152344 25.367188 9.195312 25.328125 9.195312 C 25.164062 9.207031 25.039062 9.347656 25.046875 9.511719 C 25.054688 9.675781 25.199219 9.804688 25.363281 9.792969 C 25.371094 9.792969 26.378906 9.75 27.613281 10.410156 C 28.082031 11.785156 28.339844 13.261719 28.339844 14.796875 C 28.339844 15.410156 28.296875 16.011719 28.21875 16.601562 C 27.484375 15.652344 26.742188 15.273438 26.707031 15.253906 C 26.558594 15.183594 26.378906 15.242188 26.304688 15.386719 C 26.230469 15.535156 26.289062 15.714844 26.4375 15.789062 Z M 26.4375 15.789062 " fill-opacity="1" fill-rule="nonzero"/></g><path fill="#ffffff" d="M 14.710938 4.914062 C 9.257812 4.914062 4.824219 9.347656 4.824219 14.796875 C 4.824219 20.25 9.257812 24.683594 14.710938 24.683594 C 20.160156 24.683594 24.597656 20.25 24.597656 14.796875 C 24.597656 9.347656 20.160156 4.914062 14.710938 4.914062 Z M 14.710938 24.085938 C 9.589844 24.085938 5.421875 19.917969 5.421875 14.796875 C 5.421875 9.675781 9.589844 5.511719 14.710938 5.511719 C 19.832031 5.511719 24 9.675781 24 14.796875 C 24 19.917969 19.832031 24.085938 14.710938 24.085938 Z M 14.710938 24.085938 " fill-opacity="1" fill-rule="nonzero"/><path fill="#ffffff" d="M 23.105469 13.597656 C 23.105469 13.59375 23.105469 13.59375 23.105469 13.59375 C 22.792969 11.410156 21.648438 9.492188 20 8.171875 C 19.984375 8.15625 19.96875 8.140625 19.949219 8.128906 C 19.941406 8.125 19.9375 8.121094 19.933594 8.121094 C 19.3125 7.632812 18.621094 7.230469 17.878906 6.929688 C 17.875 6.929688 17.871094 6.925781 17.867188 6.925781 C 17.859375 6.921875 17.847656 6.917969 17.835938 6.914062 C 16.867188 6.527344 15.8125 6.316406 14.710938 6.316406 C 13.609375 6.316406 12.550781 6.527344 11.582031 6.914062 C 11.574219 6.917969 11.5625 6.921875 11.550781 6.925781 C 11.550781 6.925781 11.546875 6.929688 11.546875 6.929688 C 10.800781 7.230469 10.109375 7.632812 9.488281 8.121094 C 9.480469 8.125 9.476562 8.125 9.472656 8.128906 C 9.453125 8.140625 9.4375 8.15625 9.421875 8.171875 C 7.777344 9.488281 6.628906 11.40625 6.316406 13.585938 C 6.316406 13.589844 6.316406 13.59375 6.3125 13.597656 L 6.3125 13.601562 C 6.257812 13.992188 6.230469 14.390625 6.230469 14.796875 C 6.230469 15.207031 6.257812 15.605469 6.3125 15.996094 L 6.3125 16 C 6.316406 16.003906 6.316406 16.007812 6.316406 16.011719 C 6.628906 18.191406 7.777344 20.109375 9.421875 21.425781 C 9.4375 21.441406 9.453125 21.457031 9.472656 21.46875 C 9.476562 21.472656 9.484375 21.472656 9.488281 21.476562 C 10.109375 21.964844 10.800781 22.367188 11.546875 22.667969 C 11.546875 22.667969 11.550781 22.671875 11.550781 22.671875 C 11.5625 22.675781 11.574219 22.679688 11.582031 22.683594 C 12.550781 23.066406 13.605469 23.28125 14.710938 23.28125 C 15.816406 23.28125 16.859375 23.070312 17.824219 22.6875 C 17.839844 22.683594 17.855469 22.679688 17.867188 22.671875 C 17.871094 22.667969 17.875 22.667969 17.878906 22.667969 C 18.617188 22.367188 19.308594 21.964844 19.929688 21.480469 C 19.9375 21.476562 19.941406 21.472656 19.949219 21.46875 C 19.96875 21.457031 19.984375 21.441406 20 21.425781 C 21.648438 20.105469 22.792969 18.1875 23.105469 16.003906 C 23.105469 16.003906 23.105469 16 23.105469 16 C 23.164062 15.605469 23.191406 15.207031 23.191406 14.796875 C 23.191406 14.390625 23.164062 13.992188 23.105469 13.597656 Z M 22.457031 13.339844 C 20.914062 13.421875 19.109375 13.25 18.683594 12.507812 C 18.253906 11.765625 19.003906 10.121094 19.84375 8.820312 C 21.175781 9.964844 22.121094 11.546875 22.457031 13.339844 Z M 14.710938 6.914062 C 15.625 6.914062 16.503906 7.074219 17.324219 7.363281 C 16.621094 8.738281 15.570312 10.214844 14.710938 10.214844 C 13.851562 10.214844 12.804688 8.738281 12.097656 7.363281 C 12.917969 7.074219 13.796875 6.914062 14.710938 6.914062 Z M 9.578125 8.820312 C 10.417969 10.117188 11.167969 11.765625 10.738281 12.507812 C 10.3125 13.25 8.507812 13.421875 6.964844 13.339844 C 7.300781 11.546875 8.246094 9.964844 9.578125 8.820312 Z M 6.964844 16.253906 C 8.507812 16.175781 10.3125 16.347656 10.738281 17.089844 C 11.167969 17.832031 10.417969 19.480469 9.578125 20.777344 C 8.246094 19.628906 7.300781 18.050781 6.964844 16.253906 Z M 14.710938 22.679688 C 13.796875 22.679688 12.917969 22.523438 12.097656 22.234375 C 12.804688 20.859375 13.851562 19.382812 14.710938 19.382812 C 15.570312 19.382812 16.621094 20.859375 17.324219 22.234375 C 16.503906 22.523438 15.625 22.679688 14.710938 22.679688 Z M 19.84375 20.777344 C 19.003906 19.476562 18.253906 17.832031 18.683594 17.089844 C 19.109375 16.347656 20.914062 16.175781 22.457031 16.253906 C 22.121094 18.050781 21.175781 19.632812 19.84375 20.777344 Z M 22.546875 15.660156 C 21.269531 15.589844 18.839844 15.617188 18.164062 16.792969 C 17.488281 17.960938 18.671875 20.078125 19.371094 21.152344 C 18.910156 21.488281 18.414062 21.78125 17.882812 22.015625 C 17.304688 20.871094 16.066406 18.785156 14.710938 18.785156 C 13.355469 18.785156 12.117188 20.871094 11.539062 22.015625 C 11.007812 21.78125 10.511719 21.488281 10.046875 21.152344 C 10.75 20.078125 11.933594 17.964844 11.257812 16.792969 C 10.582031 15.617188 8.152344 15.589844 6.875 15.660156 C 6.84375 15.378906 6.828125 15.089844 6.828125 14.796875 C 6.828125 14.507812 6.84375 14.21875 6.875 13.9375 C 7.109375 13.949219 7.378906 13.960938 7.671875 13.960938 C 8.980469 13.960938 10.703125 13.765625 11.257812 12.804688 C 11.933594 11.632812 10.75 9.515625 10.046875 8.445312 C 10.511719 8.105469 11.007812 7.816406 11.539062 7.582031 C 12.117188 8.726562 13.355469 10.8125 14.710938 10.8125 C 16.066406 10.8125 17.304688 8.726562 17.882812 7.582031 C 18.414062 7.816406 18.910156 8.105469 19.371094 8.445312 C 18.671875 9.519531 17.488281 11.636719 18.164062 12.804688 C 18.714844 13.765625 20.441406 13.960938 21.75 13.960938 C 22.042969 13.960938 22.3125 13.949219 22.546875 13.9375 C 22.578125 14.21875 22.59375 14.507812 22.59375 14.796875 C 22.59375 15.089844 22.578125 15.378906 22.546875 15.660156 Z M 22.546875 15.660156 " fill-opacity="1" fill-rule="nonzero"/><path fill="#ffffff" d="M 18.0625 14.140625 C 17.933594 13.46875 17.597656 12.84375 17.105469 12.363281 C 17.105469 12.207031 17.070312 12.050781 16.988281 11.910156 C 16.75 11.5 16.234375 11.351562 15.820312 11.566406 C 15.464844 11.445312 15.089844 11.382812 14.710938 11.382812 C 14.398438 11.382812 14.09375 11.425781 13.796875 11.507812 C 13.664062 11.429688 13.511719 11.382812 13.347656 11.382812 C 12.875 11.382812 12.488281 11.757812 12.464844 12.222656 C 11.945312 12.675781 11.574219 13.277344 11.402344 13.945312 C 11.265625 14.019531 11.152344 14.132812 11.070312 14.269531 C 10.953125 14.476562 10.921875 14.714844 10.980469 14.941406 C 11.039062 15.15625 11.171875 15.335938 11.359375 15.457031 C 11.488281 16.128906 11.824219 16.75 12.316406 17.234375 C 12.3125 17.390625 12.351562 17.546875 12.433594 17.6875 C 12.597656 17.972656 12.894531 18.128906 13.199219 18.128906 C 13.335938 18.128906 13.476562 18.097656 13.601562 18.03125 C 13.960938 18.152344 14.332031 18.214844 14.710938 18.214844 C 15.023438 18.214844 15.328125 18.171875 15.625 18.089844 C 15.757812 18.167969 15.910156 18.214844 16.074219 18.214844 C 16.546875 18.214844 16.933594 17.839844 16.957031 17.371094 C 17.476562 16.917969 17.847656 16.320312 18.019531 15.652344 C 18.152344 15.578125 18.269531 15.46875 18.351562 15.324219 C 18.585938 14.914062 18.457031 14.394531 18.0625 14.140625 Z M 15.945312 12.277344 C 15.96875 12.203125 16.015625 12.140625 16.078125 12.105469 C 16.125 12.078125 16.171875 12.066406 16.222656 12.066406 C 16.320312 12.066406 16.417969 12.117188 16.46875 12.207031 C 16.546875 12.34375 16.5 12.519531 16.363281 12.597656 C 16.300781 12.636719 16.222656 12.644531 16.148438 12.625 C 16.074219 12.605469 16.015625 12.558594 15.976562 12.492188 C 15.9375 12.425781 15.925781 12.351562 15.945312 12.277344 Z M 13.347656 11.980469 C 13.503906 11.980469 13.632812 12.109375 13.632812 12.265625 C 13.632812 12.421875 13.503906 12.550781 13.347656 12.550781 C 13.1875 12.550781 13.0625 12.421875 13.0625 12.265625 C 13.0625 12.109375 13.191406 11.980469 13.347656 11.980469 Z M 11.695312 14.960938 C 11.628906 14.921875 11.582031 14.859375 11.558594 14.789062 C 11.539062 14.714844 11.550781 14.636719 11.589844 14.570312 C 11.628906 14.503906 11.6875 14.457031 11.761719 14.4375 C 11.785156 14.429688 11.8125 14.429688 11.835938 14.429688 C 11.886719 14.429688 11.933594 14.441406 11.976562 14.464844 C 12.042969 14.503906 12.089844 14.566406 12.109375 14.640625 C 12.128906 14.710938 12.121094 14.789062 12.082031 14.855469 C 12.042969 14.921875 11.984375 14.96875 11.910156 14.988281 C 11.835938 15.007812 11.757812 14.996094 11.695312 14.960938 Z M 13.472656 17.320312 C 13.453125 17.394531 13.40625 17.453125 13.34375 17.492188 C 13.207031 17.570312 13.03125 17.523438 12.953125 17.386719 C 12.914062 17.320312 12.90625 17.246094 12.925781 17.171875 C 12.945312 17.097656 12.992188 17.035156 13.058594 17 C 13.101562 16.972656 13.148438 16.960938 13.199219 16.960938 C 13.222656 16.960938 13.25 16.964844 13.273438 16.96875 C 13.347656 16.992188 13.40625 17.039062 13.445312 17.105469 C 13.484375 17.167969 13.496094 17.246094 13.472656 17.320312 Z M 16.074219 17.617188 C 15.917969 17.617188 15.789062 17.488281 15.789062 17.332031 C 15.789062 17.175781 15.917969 17.046875 16.074219 17.046875 C 16.230469 17.046875 16.359375 17.171875 16.359375 17.332031 C 16.359375 17.488281 16.230469 17.617188 16.074219 17.617188 Z M 16.742188 16.75 C 16.578125 16.566406 16.339844 16.445312 16.074219 16.445312 C 15.585938 16.445312 15.191406 16.84375 15.191406 17.332031 C 15.191406 17.414062 15.203125 17.492188 15.222656 17.570312 C 15.054688 17.597656 14.882812 17.617188 14.710938 17.617188 C 14.480469 17.617188 14.253906 17.589844 14.035156 17.535156 C 14.042969 17.515625 14.046875 17.496094 14.054688 17.472656 C 14.113281 17.246094 14.082031 17.007812 13.964844 16.804688 C 13.847656 16.597656 13.65625 16.453125 13.429688 16.390625 C 13.199219 16.332031 12.960938 16.363281 12.757812 16.480469 C 12.6875 16.519531 12.625 16.570312 12.566406 16.628906 C 12.308594 16.324219 12.113281 15.964844 12.003906 15.582031 C 12.023438 15.578125 12.042969 15.574219 12.0625 15.566406 C 12.292969 15.507812 12.484375 15.359375 12.601562 15.15625 C 12.71875 14.949219 12.75 14.710938 12.691406 14.484375 C 12.628906 14.257812 12.484375 14.066406 12.277344 13.949219 C 12.207031 13.90625 12.132812 13.878906 12.054688 13.859375 C 12.1875 13.480469 12.402344 13.132812 12.679688 12.84375 C 12.84375 13.03125 13.082031 13.148438 13.347656 13.148438 C 13.835938 13.148438 14.230469 12.753906 14.230469 12.265625 C 14.230469 12.183594 14.21875 12.105469 14.199219 12.027344 C 14.367188 11.996094 14.535156 11.980469 14.710938 11.980469 C 14.941406 11.980469 15.167969 12.007812 15.386719 12.0625 C 15.308594 12.296875 15.324219 12.5625 15.457031 12.792969 C 15.574219 12.996094 15.765625 13.144531 15.992188 13.207031 C 16.070312 13.226562 16.148438 13.234375 16.222656 13.234375 C 16.375 13.234375 16.527344 13.195312 16.664062 13.117188 C 16.734375 13.074219 16.796875 13.027344 16.851562 12.96875 C 17.113281 13.273438 17.304688 13.632812 17.417969 14.015625 C 17.398438 14.019531 17.378906 14.023438 17.355469 14.03125 C 17.128906 14.089844 16.9375 14.238281 16.820312 14.441406 C 16.578125 14.863281 16.722656 15.40625 17.144531 15.648438 C 17.214844 15.691406 17.289062 15.71875 17.367188 15.738281 C 17.234375 16.117188 17.019531 16.460938 16.742188 16.753906 Z M 17.832031 15.027344 C 17.753906 15.164062 17.578125 15.210938 17.445312 15.128906 C 17.308594 15.050781 17.261719 14.878906 17.339844 14.742188 C 17.378906 14.675781 17.4375 14.628906 17.511719 14.609375 C 17.585938 14.589844 17.664062 14.597656 17.726562 14.636719 C 17.863281 14.714844 17.910156 14.890625 17.832031 15.027344 Z M 17.832031 15.027344 " fill-opacity="1" fill-rule="nonzero"/><path fill="#ffffff" d="M 14.710938 12.941406 C 13.6875 12.941406 12.851562 13.773438 12.851562 14.796875 C 12.851562 15.824219 13.6875 16.65625 14.710938 16.65625 C 15.734375 16.65625 16.570312 15.824219 16.570312 14.796875 C 16.570312 13.773438 15.734375 12.941406 14.710938 12.941406 Z M 14.710938 16.058594 C 14.015625 16.058594 13.453125 15.492188 13.453125 14.796875 C 13.453125 14.105469 14.015625 13.539062 14.710938 13.539062 C 15.40625 13.539062 15.96875 14.105469 15.96875 14.796875 C 15.96875 15.492188 15.40625 16.058594 14.710938 16.058594 Z M 14.710938 16.058594 " fill-opacity="1" fill-rule="nonzero"/><path stroke-linecap="butt" transform="matrix(0.320577, 0.651172, -0.651172, 0.320577, 23.306355, 4.04984)" fill="none" stroke-linejoin="miter" d="M 0.000817807 0.500863 L 0.45091 0.500491 " stroke="#ffffff" stroke-width="1" stroke-opacity="1" stroke-miterlimit="4"/></svg>